<?xml version="1.0"?><svg width="640" height="480" xmlns="http://www.w3.org/2000/svg">
 <title>green mirrored flower frame</title>
 <g>
  <title>Layer 1</title>
  <g id="svg_40">
   <path id="svg_41" fill="#3a6b09" d="m98.357643,1.06096c-1.550331,-1.18696 -2.124763,1.02004 -3.67514,-0.16693c-1.301094,2.33557 -1.717659,3.24651 -1.930367,4.49978c1.298241,1.24311 1.901794,0.07297 2.92926,0.37436c1.14196,-1.98198 0.80175,-3.54956 2.676247,-4.70721z" clip-rule="evenodd" fill-rule="evenodd"/>
   <path id="svg_42" fill="#3a6b09" d="m278.292114,153.128342c-1.392822,0.296219 -2.417725,1.8694 -3.366455,3.71019c1.522034,0.152847 2.377075,-2.010956 3.366455,-3.71019z" clip-rule="evenodd" fill-rule="evenodd"/>
   <path id="svg_43" fill="#3a6b09" d="m90.43277,54.781891c-1.374123,-1.041943 -2.36911,-0.76527 -2.984886,0.830101c1.374138,1.041958 2.369133,0.765266 2.984886,-0.830101z" clip-rule="evenodd" fill-rule="evenodd"/>
   <path id="svg_44" fill="#3a6b09" d="m271.616638,159.342926c-3.793762,0.81842 -6.247864,6.300842 -9.505554,8.983612c0.856323,0.950836 1.304321,2.015182 2.815186,2.783997c2.403076,-4.095535 9.187134,-7.196091 6.690369,-11.767609z" clip-rule="evenodd" fill-rule="evenodd"/>
   <path id="svg_45" fill="#3a6b09" d="m76.02652,63.543201c-1.553741,0.20203 -2.639771,2.030315 -3.844063,3.447605c1.918556,1.064026 2.727943,-1.726379 3.844063,-3.447605z" clip-rule="evenodd" fill-rule="evenodd"/>
   <path id="svg_46" fill="#3a6b09" d="m167.533234,122.50412c1.716003,2.836159 4.931122,1.941338 0,0l0,0z" clip-rule="evenodd" fill-rule="evenodd"/>
   <path id="svg_47" fill="#3a6b09" d="m167.420135,124.914742c1.322601,2.343727 4.191864,1.794937 5.954834,3.892738c-0.301392,-1.666557 -3.985016,-3.949669 -5.954834,-3.892738z" clip-rule="evenodd" fill-rule="evenodd"/>
   <path id="svg_48" fill="#3a6b09" d="m233.289337,170.398041c1.262634,0.441055 0.551422,1.431702 2.124969,1.787018c0.469177,-0.239273 0.933899,-0.488983 1.282227,-1.148727c-0.317261,-1.12648 -2.805359,-2.643448 -3.407196,-0.63829z" clip-rule="evenodd" fill-rule="evenodd"/>
   <path id="svg_49" fill="#3a6b09" d="m131.391998,113.137001c-4.030998,2.162003 -5.625,12.775002 -12.069,11.281998c-1.402,-2.520996 -0.721001,-7.718002 1.200005,-9.844002c-1.236,-2.226997 -3.152,4.056 -2.198006,4.970001c-0.816994,2.201004 -1.586998,3.209999 -1.931,4.5c2.107002,2.834 6.592003,2.789001 8.096001,0.127998c0.390999,-0.691994 2.757004,-1.544998 2.775002,-1.564995c2.164993,-2.612999 2.669998,-7.196999 4.126999,-9.471001l0,0z" clip-rule="evenodd" fill-rule="evenodd"/>
   <path id="svg_50" fill="#3a6b09" d="m126.760498,112.443947c-2.220032,1.013496 -5.303741,5.400444 -5.77475,7.946091c2.141975,-1.890419 4.009552,-4.742889 5.77475,-7.946091z" clip-rule="evenodd" fill-rule="evenodd"/>
   <path id="svg_51" fill="#3a6b09" d="m55.86224,74.698753c0.247501,-1.25705 -2.579861,-1.65905 -3.561581,-2.575737c-0.595058,2.085625 2.186951,1.72718 3.561581,2.575737z" clip-rule="evenodd" fill-rule="evenodd"/>
   <path id="svg_52" fill="#3a6b09" d="m52.03223,72.5933c-1.353889,-0.971207 -1.86512,0.987473 -2.773109,1.564049c1.584721,1.589653 1.801208,2.26207 3.561008,2.576584c-1.54538,-0.275673 1.030521,-1.673203 1.548832,-1.619682c-1.26392,-0.7052 -2.966461,-1.288422 -2.336731,-2.520943l0,-0.000008z" clip-rule="evenodd" fill-rule="evenodd"/>
   <path id="svg_53" fill="#3a6b09" d="m249.759308,185.632111c0.191803,-1.448074 -2.329742,-0.789459 -2.716949,0.358749c1.30246,1.260315 1.537781,-1.190399 2.716949,-0.358749z" clip-rule="evenodd" fill-rule="evenodd"/>
   <path id="svg_54" fill="#3a6b09" d="m9.66739,138.270432c1.02307,0.288712 2.52084,2.225845 2.92837,0.373917c-0.290621,-1.140518 -2.33737,-2.187973 -2.92837,-0.373917z" clip-rule="evenodd" fill-rule="evenodd"/>
   <path id="svg_55" fill="#3a6b09" d="m32.547298,69.293297c-1.209398,1.399704 -2.798498,1.483704 -4.055298,2.712807c-2.7983,7.479195 -2.2803,13.139595 -9.001001,19.147194c6.087301,3.786804 11.437601,-2.129898 14.023901,-5.881798c1.010799,1.256897 0.009499,3.731003 -0.494301,5.289398c-1.2174,3.7724 -3.597599,7.680099 -7.590199,10.037102c-2.738001,-0.18 -5.5723,-0.694901 -7.885201,0.607002c-0.5343,2.613998 -0.9496,4.437996 0.4625,5.814995c6.681499,6.508003 19.806501,-7.304596 20.926699,-16.916199c2.668701,3.353104 1.180202,9.7743 0.968403,15.978203c-0.5131,14.987 -10.571001,44.365997 -31.728791,32.600998c-1.92264,-1.975006 0.94739,-5.283005 1.3537,-7.904999c-7.73389,-4.038002 -8.01016,7.395996 -5.40906,10.617996c-1.1199,0.309998 -2.23654,0.628998 -3.25238,1.300003c-0.92334,2.503998 -1.33005,4.862 -0.07199,6.757996c2.68268,0.923004 5.45203,2.141998 7.34937,0.334c-1.59507,-1.214996 -5.00742,-0.714996 -4.51923,-3.102997c-0.1658,-2.315002 3.35449,-1.768997 4.80167,-2.92099c3.36731,1.437988 7.35201,2.301987 10.22101,1.913986c6.7437,-0.912994 15.200499,-7.475998 19.377298,-15.29599c8.182102,-15.320007 6.036301,-35.407707 1.938702,-46.507607c0.907101,-1.837395 -0.2048,-3.113197 0.226299,-4.8181c-3.7351,-0.170097 -2.3899,-7.409096 -7.3335,-5.885796c-1.2763,2.031799 2.195202,2.792595 0.462502,5.815399c-1.1026,0.660896 -1.210201,-2.272804 -0.576603,-3.4058c-1.663698,1.661896 -1.621798,6.256302 0.3498,8.2248c-2.457098,3.133202 -4.921698,6.242897 -8.167599,6.630402c-0.151699,-1.200401 1.061701,-5.158401 3.057301,-7.586502c0.952499,-2.919098 0.4466,-8.082397 2.691599,-10.258698c2.350702,-2.282104 5.615999,-1.453804 8.096201,0.126396c5.947399,3.789001 2.953499,15.190002 7.247398,18.194801c0.2346,0.859901 -0.4044,1.961296 -1.127399,3.087502c0.982502,1.179497 2.617802,2.178299 4.5201,3.102798c0.778801,-1.753204 -0.564598,-1.908699 -1.858398,-2.258003c2.679001,-4.076698 -4.153702,-8.6343 -2.630001,-11.949699c1.4258,-3.099899 4.292202,-1.000397 6.026901,-2.864899c2.322899,1.274803 0.2076,2.278297 0.576599,3.405701c1.7234,2.030197 4.0994,3.8797 6.855099,5.622803c0.896503,0.7817 1.294102,-0.171806 1.760601,-0.885704c0.174301,1.6689 2.234699,2.813202 2.4902,4.458c-2.794899,2.891304 -7.045998,0.721199 -10.6022,0.968002c1.202801,3.410995 7.4832,2.290497 10.2211,1.913498c4.1073,5.1157 12.938103,6.959702 18.723701,9.058701c1.4198,-3.565002 -0.285103,-6.2612 -0.294205,-9.429497c6.270607,0.318893 12.675201,1.100899 18.220802,-1.104103c4.371605,-3.480499 8.765602,-6.884903 11.969604,-14.424797c-1.382004,0.9011 -1.749001,-0.053505 -1.646004,-1.524002c0.826004,-2.423904 1.397003,1.185402 1.971001,-0.152199c3.153,-4.574203 0.256996,-7.468102 1.524002,-11.519402c-2.725006,-5.146 -4.417,-11.4874 -10.134003,-14.221901c-4.886497,-2.335899 -11.400703,1.009201 -16.347298,-2.1917c-3.985603,2.952801 -8.7901,3.065399 -12.7995,5.937099c0.374397,1.431702 2.1315,1.472099 3.349701,1.841801c-5.148605,3.580399 -9.848602,8.7262 -15.475803,10.644604c-1.292,-4.295204 -0.244701,-11.249905 -7.262001,-12.642704c-3.611797,-7.2514 5.255901,-17.643898 10.184803,-23.4384c3.8647,-1.977798 7.615196,-4.347198 11.363495,-6.726999c9.510002,-0.2866 20.747704,-1.718599 32.368607,6.058201c-1.890007,3.7885 -4.174004,11.621901 -0.889,13.721201c4.567993,2.920498 8.859993,-5.905903 14.236,-5.1478c3.358994,3.820999 8.888,7.038498 10.514999,11.342598c1.26799,1.144199 2.01799,0.478001 3.138992,1.107403c3.202011,6.771698 10.998001,12.265297 10.598007,20.037895c1.302002,1.090607 1.925995,2.370705 3.026001,3.517502c2.518997,11.320503 8.759003,21.605804 13.707001,32.249199c-8.598007,-7.970001 -20.600998,-6.504997 -26.975006,-11.123497c-1.584,-1.304001 -2.132996,0.993698 -3.251999,1.300499c-9.663002,-2.772697 -17.743996,-0.042603 -26.103996,1.710999c0.008995,3.036003 6.365997,4.306 7.277,7.091003c4.399994,0.349998 8.312996,-0.988998 12.995995,0.348999c2.998009,-0.787003 5.366997,-3.759003 8.745003,-3.224998c-0.619003,3.948997 -5.878006,3.832001 -7.957001,7.364998c2.884995,0.223999 4.488998,-4.007004 7.307007,-4.014c1.25,1.501999 -3.922012,4.789001 -1.507004,5.967003c1.541,-3.045006 4.054001,-6.450005 5.35199,-9.415001c10.06601,-2.674004 25.695007,8.017998 31.649002,16.165001c-4.684998,-0.100006 -11.526993,-1.269005 -13.432999,3.736c9.003006,2.208 15.654007,13.635002 23.778,11.219994c9.199005,5.214996 19.294998,12.279007 29.408997,16.787003c13.863007,6.179001 29.216003,6.330002 40.675003,6.917999c-2.856003,2.680008 -6.481995,2.682999 -9.335999,5.369995c-5.214005,0.553009 -11.274994,-1.838989 -16.613998,-1.720993c1.227005,3.621994 4.097,6.787003 4.658997,10.593994c1.965012,0.641998 1.596008,1.932999 3.561005,2.576004c-3.031006,3.658005 -5.244995,4.126007 -7.729996,2.544998c-3.095001,-1.966995 -1.158997,-7.195999 -5.25,-8.446991c-1.927002,-0.590012 -5.335999,0.959 -6.562012,3.806992c-3.172989,7.376007 9.03801,16.513 19.074005,17.283997c3.354004,0.257004 6.903,-1.158997 10.658997,-2.17099c0.798004,3.880997 7.889008,9.194 11.756012,5.843994c-0.412003,-1.998001 0.317001,-4.315002 -0.195999,-6.285995c2.309982,-1.464996 2.361008,-3.528 4.168991,-5.122009c0.996002,-0.877991 2.614014,-0.694 3.252991,-1.300995c0.602997,-0.572998 -1.539978,-1.554001 0.591003,-2.145996c1.869019,-0.520004 1.166016,-1.554001 2.40802,-4.237c1.912994,1.151993 4.463989,3.134995 7.714996,3.007004c1.64798,-2.969009 1.733002,-5.502014 1.354004,-7.906006c4.056,-3.055008 5.580994,-13.188004 11.701996,-13.953995c2.074005,-5.387009 6.608002,-5.362 10.942993,-8.19101c2.816986,-5.822998 4.713013,-8.060989 6.477997,-12.501999c-4.61499,0.975998 -13.950012,-3.416992 -17.556,-7.798996c0.536011,-0.942001 1.071014,-1.883003 1.605988,-2.822998c1.950012,-0.578003 -0.112,1.359993 2.126007,1.785995c1.610992,-1.872002 4.070007,-0.793999 6.602997,0.542007c2.270996,-0.976006 4.757996,-1.20401 6.562012,-3.807007c3.001007,-0.307999 5.593994,-2.035004 7.842987,-4.955002c-4.447998,-2.840996 -10.566986,-7.276001 -15.85199,-7.479996c-1.93399,2.148994 -4.502014,2.098999 -6.562012,3.806999c-2.178986,3.726997 -2.448975,6.141998 -5.296997,8.209c-2.315979,-0.941002 -2.328979,-2.522003 -3.505005,-3.780998c2.19101,-7.614006 6.413025,-12.319 5.806,-19.051003c-0.287994,-3.189003 -0.467987,-3.587997 -1.42099,-6.342499c-0.472992,-1.366798 -0.78299,-4.4095 -2.434998,-5.663704c-1.519989,-0.146095 -1.877991,3.746002 -3.365997,3.710205c-2.315002,-1.531502 -2.558014,-4.637001 -6.165985,-4.626305c-0.466003,3.2658 1.931,3.642899 1.152985,6.8125c-0.584991,2.385605 -3.102997,3.992599 -3.747009,6.589806c-0.973999,3.933998 1.712006,7.447998 2.209015,10.481995c0.984985,0.915001 1.798981,1.876999 3.561005,2.576004c0.668976,1.134995 1.020996,2.357994 1.054993,3.668999c-4.442993,-2.458 -14.769012,-9.665001 -19.429016,-4.503998c9.789001,5.285995 11.854004,17.431999 24.029999,16.301994c6.108002,3.735001 12.160004,8.018005 18.246002,8.796997c-1.722992,2.669006 -7.553986,1.042007 -12.840973,1.590012c-6.097015,0.62999 -12.979004,3.487991 -19.331024,-1.362c-3.270996,-2.497009 -2.565979,-6.235001 -5.192993,-9.651001c-4.481995,-0.440002 -9.494003,2.495987 -10.942001,8.194c-9.18399,-2.488007 -21.595001,-8.734009 -29.707001,-5.213013c-3.791,1.646011 -8.419998,6.934006 -6.957993,12.238007c3.820999,2.307999 6.863998,-1.556 9.742996,1.649002c-1.718994,-2.585999 3.302994,-5.901001 5.507004,-7.473999c1.054993,0.75 -1.041,1.729004 -1.550003,1.619003c-0.507004,1.656998 0.927994,1.314987 2.126999,1.786987c0.229004,2.53801 -3.781006,0.284012 -4.591003,3.654007c9.134003,4.671997 18.27301,9.360992 25.230011,6.457001c-2.270004,-1.794998 -7.246002,-0.923996 -11.334,-4.376999c-1.270004,1.806992 2.688995,2.158005 3.772995,3.309998c-4.492996,-0.210999 -10.012009,-3.985992 -14.951004,-5.748993c-0.222,-1.777008 3.647003,-1.277008 5.223999,-1.453003c1.348007,-1.695999 -2.313004,-1.998001 -3.293991,-3.046997c2.876999,-3.075012 7.063995,-1.594009 10.447998,-2.905014c-4.917007,-1.508987 -8.792999,-2.153 -12.516998,-0.085999c-3.404007,1.888 -5.312012,6.791 -9.604004,5.841003c-1.421997,-1.057999 -2.369995,-2.246994 -0.787003,-4.140991c1.436005,-0.221008 2.320007,4.707993 4.843994,1.426987c-1.110992,-1.060989 -1.495987,0.406006 -2.449997,-0.110001c-0.671997,-3.898987 2.714005,-3.949997 4.70401,-6.063995c-1.647003,-0.121002 -2.98201,0.839996 -4.478012,1.244995c0.169006,-1.802994 3.978012,-2.944992 6.449005,-1.395996c0.541,-0.810989 -0.020996,-1.315002 0.591995,-2.145996c7.047012,-1.186005 16.661011,6.554001 24.427002,7.869995c1.102005,-4.466995 4.559006,-9.391998 8.282013,-9.039993c3.212982,3.466003 2.980988,7.888992 6.839996,11.175995c11.140991,2.775009 20.128998,-1.938004 30.946991,-0.283997c-1.566986,0.563004 -0.177002,0.589005 -0.324005,1.675003c-1.117004,1.235992 -0.768005,-1.013 -1.914978,-1.053009c-14.489014,2.87001 -28.618011,6.986008 -42.960007,10.362c3.265991,2 8.427994,-1.508987 12.57399,-1.118988c4.192017,-2.237 8.893005,-2.708008 13.433014,-3.735001c-9.891022,3.440994 -19.794006,6.839996 -30.540009,7.304001c-0.568008,0.685989 -0.007996,1.05899 -0.324005,1.675995c-12.48999,-2.804001 -29.119003,-4.389999 -42.901001,-11.848999c-6.743988,-3.651001 -13.151001,-7.710007 -17.060989,-13.089005c0.51799,-2.942993 3.285995,-3.360001 4.168991,-5.120995c3.684006,-7.360001 -4.895996,-15.558006 3.313995,-23.510002c-8.132996,0.253998 -17.184998,9.019997 -16.084,18.343002c-1.801987,-0.044006 -2.485001,-3.789001 -3.926987,-5.248001c-0.448013,-6.189003 1.031998,-14.361 4.424988,-21.045502c0.555008,-1.092697 1.777008,-0.974098 2.028,-1.356201c0.550003,-0.839996 -0.048996,-2.247398 0.381012,-2.8806c0.905991,-1.333702 2.216995,-3.354599 3.845001,-3.447197c0.588989,2.213295 -1.030014,5.042198 -0.341003,7.227798c4.518997,-2.503799 9.147995,-4.626404 15.712997,-0.010704c0.682999,-0.893898 1.811996,-0.236397 2.718002,-0.359596c1.287994,-0.190804 1.80899,-3.0494 3.097992,-3.238899c1.271011,1.244102 1.917999,3.944901 1.688004,5.870697c-0.175995,1.489502 -1.688004,2.2472 -2.139999,3.765205c-0.425995,1.431 -0.548004,4.691994 -0.819,6.963997c-0.647995,5.445999 -0.834,8.100998 4.658005,10.594002c2.278,4.314995 4.826996,6.581001 10.628998,8.931999c5.597992,2.268997 6.063004,2.013992 11.235992,1.235001c7.486008,-1.128006 11.514008,-4.582001 17.024002,-12.264c3.057999,-4.264 3.238007,-4.902 3.649002,-9.734001c0.444,-5.212997 -0.069,-9.465599 -0.602005,-13.305901c-2.702988,-1.173103 -4.106995,-4.867599 -6.531998,-7.298599c1.917999,-3.138504 6.225006,2.028297 8.153,-1.0784c-0.756989,-5.667198 -10.421997,-10.549103 -16.849991,-12.354805c-0.472,-1.1894 0.026993,-2.649498 -0.309998,-3.876198c-5.475006,-3.626999 -9.519012,-2.2733 -13.896011,-2.079597c-6.373001,-3.468502 -14.671997,-6.554401 -20.022003,-2.358101c0.765015,1.637001 4.02301,2.579697 5.955002,3.8927c-1.748993,1.521103 -3.651993,-1.055 -5.321991,-1.690002c-2.473999,-0.941895 -5.46701,-1.186699 -7.503998,-2.272202c-2.712006,3.187904 -7.897003,3.644501 -8.971008,8.042702c2.714996,0.706604 7.001007,0.500198 8.94101,3.061798c-3.185013,3.133301 -10.899002,4.632805 -15.476013,10.6446c-4.876999,6.403008 -7.278,13.781006 -8.579987,20.615005c2.049988,0.738998 0.188995,-1.995003 2.352997,-3.030998c0.485992,2.637993 -0.276001,5.623993 -0.396011,8.431c-3.200989,-1.091003 0.185013,-4.014 -3.44899,-4.985001c-0.561005,-7.380005 -2.703003,-14.255104 -2.865997,-22.582405c-0.055008,-2.736099 -0.358002,-6.1129 0.606995,-7.6987c1.432007,-2.356094 4.037994,-1.889397 6.294006,-3.335495c1.655991,-1.062302 3.431992,-2.836403 4.378998,-4.388504c4.375,-7.168098 3.093002,-17.250099 10.241989,-24.643497c-3.260986,-0.7467 -6.334,2.038399 -9.011993,3.695c-4.25,2.6297 -7.949997,5.4575 -11.589996,11.545998c-2,-3.671497 0.306992,-8.5397 -0.391998,-12.5728c0.90799,-0.577499 1.419998,-2.536198 2.774002,-1.564499c-0.38501,-3.184898 3.951996,-4.269699 5.505997,-7.4753c2.203003,-4.538799 1.255997,-10.027599 -1.827011,-13.3619c-1.85199,1.4998 -3.51799,3.648701 -4.972,6.5338c-2.620987,-4.106199 -5.821991,-9.895599 -12.218994,-11.660799c-1.009003,2.923199 1.731995,4.802599 2.111008,7.339499c-1.962006,4.112001 -0.535004,7.282 -0.508011,10.841402c3.684006,3.4669 7.098007,7.008698 5.826004,11.8531c-3.895996,-1.7421 -6.266006,-7.2019 -11.319,-9.930401c0.572998,5.256401 0.947006,10.569099 -0.524002,16.393898c-1.998993,-0.043797 -2.638,-3.345398 -2.703003,-5.192398c-5.537994,-6.509399 -7.008987,-14.723701 -12.990997,-21.3535c-2.561996,-2.841101 -7.528992,-5.254499 -8.923996,-8.614201c0.716003,-2.3125 1.095993,-4.5315 0.550995,-6.4934c-3.651993,-1.4874 -6.195999,0.8758 -8.322998,4.6916c-3.393997,1.3769 -7.867996,-2.568501 -11.333,-4.3775c-1.453995,-0.7595 -3.047997,-0.6609 -4.096001,-1.6348c-2.188995,-2.033 -1.643997,-4.90341 -3.125,-6.66026c1.996002,-0.92516 2.806999,-3.20332 3.212006,-5.64814c-1.429001,-2.27516 -3.632004,-1.09254 -5.589905,-1.21955c0.9319,1.42435 2.2789,1.15782 2.546906,3.25399c-1.069,0.95203 -2.060402,2.1771 -2.887306,3.97373c3.404305,6.49343 5.928299,12.369929 15.188301,16.383229c-4.839996,1.545 -13.978302,-5.5098 -16.4851,-9.682499c-1.647995,-2.7426 -0.8218,-6.19169 -3.813995,-7.65814c-0.740906,4.03674 0.623398,7.48724 4.178795,10.33004c-3.578094,1.103001 -8.480202,-2.3976 -12.614395,-3.2283c-3.637001,1.3664 -8.4189,-1.2514 -11.616501,1.6454c-1.444901,-1.2905 -2.237602,-0.3102 -3.617203,-1.3712c-4.991096,1.7583 -9.5541,4.277899 -14.3493,7.556599c-0.684399,0.468 -1.323299,0.966801 -2.027199,1.356602c-0.487999,0.270199 -1.928501,0.398199 -2.239101,0.6227c-4.111198,2.9627 -5.6534,7.175299 -9.140297,11.656698c-0.461304,0.5942 -1.619102,0.731003 -2.027103,1.3564c-6.493599,9.952202 -7.627998,22.531403 -7.4403,32.977798l0,0l0,0l0,0zm50.107105,-52.770296c-0.407501,1.8519 -1.9048,-0.086102 -2.928406,-0.373901c-2.030602,0.877001 -4.370598,0.683401 -6.8713,-0.071699c2.708305,-1.7922 6.402306,-0.156401 9.799706,0.445601zm90.1996,107.671c-0.271011,0.914001 -1.396011,0.816002 -0.803009,1.413002c3.003998,2.592003 5.791,5.07 8.771011,6.676003c-5.945007,6.935989 -13.956009,-6.976006 -21.977005,-7.759003c3.373993,-4.008003 9.587997,-4.516998 14.009003,-0.330002zm-14.945999,-26.752998c2.998001,-3.724701 -4.359009,-9.796501 -1.081009,-13.569405c1.763,7.963005 4.187012,15.743401 8.24501,23.069405c-3.274002,-10.053505 -7.276001,-19.904503 -8.386002,-30.560303c0.356995,-0.627502 0.713989,-1.255096 1.070999,-1.882698c-1.987,-1.0326 -1.249008,-2.822998 -1.266006,-4.403198c3.464005,1.149399 3.352005,3.294594 3.927002,5.248894c0.583008,-0.774399 0.858002,-2.622498 2.028,-1.356094c1.893005,2.288597 -0.526001,1.763695 -1.873001,3.294899c0.845001,0.603401 1.356995,0.049599 2.182007,0.582199c0.384995,10.196701 0.470001,22.588303 5.455994,30.185303c-1.350998,-6.360001 -3.793991,-12.418404 -3.515991,-19.232101c1.328995,4.782501 3.209,9.410698 2.995987,14.622101c1.421005,0.652 1.271011,2.946999 1.74501,4.666c0.32399,1.172997 2.501999,4.520996 0.30899,3.876999c-1.043991,-1.234001 -1.287994,-3.848 -3.560989,-2.576004c0.355988,2.278999 4.5,3.503006 2.644989,6.397003c-5.052002,-5.729004 -6.888992,-12.350998 -10.92099,-18.362999l0,0zm-12.533005,5.465996c-2.651993,-0.499001 -5.104004,0.410004 -7.139008,0.400002c-0.835999,-0.003998 -2.227997,-2.604996 -1.970993,0.152c-2.184006,-0.907997 0.108002,-1.601997 -0.632004,-2.200996c-6.944,2.479996 -13.792999,5.287994 -21.585999,4.813995c-0.735001,-1.908997 -5.923996,-2.580002 -5.419998,-4.834c7.303001,-1.229996 14.167999,-3.980202 22.639999,-1.143997c1.645996,-0.349503 3.311005,-0.633804 4.956009,-0.982605c0.984985,0.914604 1.799988,1.877602 3.560989,2.5756c11.766006,0.406006 25.887009,7.589005 30.578003,18.049004c-5.725006,-7.269997 -16.044998,-15.144997 -24.987,-16.829002zm27.382004,18.144005c-1.76001,-1.372002 -3.775009,-4.746002 -1.688004,-5.870003c-0.139999,0.698997 0.070999,1.301003 0.901001,1.731003c0.085999,-0.635002 -0.725006,-3.604004 -0.154999,-1.939003c1.656998,1.653 0.464996,4.098 0.942001,6.078003zm-30.188004,-62.935703c6.014999,11.536602 11.925003,23.103397 14.283997,35.656803c-2.477997,-3.022499 -2.828995,-7.354599 -4.179993,-10.330505c-0.549011,-1.210396 -2.118011,-2.096893 -2.548004,-3.254494c-0.979004,-2.636101 -0.011993,-6.974602 -3.278,-8.598602c0.25,-1.654503 -0.244003,-3.102798 -0.520004,-4.611099c-3.117996,-5.077003 -6.78299,-10.001904 -10.345001,-14.955402c-0.957993,-0.526501 -1.914993,-1.052601 -2.873001,-1.579201c0.202011,-2.1693 -3.681,-3.202999 -3.181,-5.455399c5.200012,2.518501 7.768005,9.197399 12.641006,13.127899l0,0zm30.416992,-20.347c0.025009,-1.063499 1.45401,-2.517597 -0.097992,-3.142799c-3.237,4.6884 -3.514008,8.231499 -6.423004,11.297199c0.134003,-6.222198 2.046005,-11.9692 6.973999,-17.7906c0.478012,0.263102 0.958008,0.526602 1.436005,0.7896c-0.884995,2.7624 1.292007,6.762901 -1.889008,8.8466zm-9.490997,3.431499c-4.179001,-3.501797 -4.424988,-10.603998 -3.951996,-15.147999c0.050995,-0.496399 -0.117996,-1.7066 1.281006,-1.1493c2.641998,4.9457 4.335999,10.154099 2.67099,16.297298zm1.493011,-0.415199c0.542999,-4.1138 0.421997,-8.0424 -0.181,-11.838499c2.884995,2.900499 2.319,8.8617 0.181,11.838499zm114.949005,56.4049c3.938995,-1.259895 3.210999,5.374504 3.067993,7.865501c-1.640015,-0.592003 -1.287994,-2.056 -2.873016,-1.580002c0.714996,-2.714996 -2.752991,-6.3573 -1.096985,-8.016495c-0.139008,0.700195 0.071991,1.301994 0.902008,1.730995zm-53.26001,-21.2509c-5.408005,-2.456802 -9.902008,-1.739601 -15.063995,-3.340401c-1.184006,-2.708595 -2.846008,-5.284401 -4.292999,-7.921196c4.089996,-0.056503 10.084991,1.529396 13.78299,4.489098c4.137009,0.371498 7.539001,-1.809998 12.460007,1.290001c-2.100998,2.501602 -4.900009,2.579498 -6.886002,5.482498zm48.907013,35.539398c-4.823029,-2.092995 0.990997,-7.144997 -1.251007,-9.954994c-1.473022,2.126999 -1.234009,3.778 -1.986023,5.703995c-4.937988,-3.659996 2.126007,-9.384895 2.114014,-13.665794c3.950989,5.108498 5.091003,11.753799 1.123016,17.916794zm-24.536011,-26.464798c-1.602005,-1.495102 -4.130997,0.350899 -6.602997,-0.541702c-2.508011,-0.904495 -4.664001,-3.696198 -7.390015,-4.681c-3.466995,-1.252098 -5.685989,0.010002 -8.038986,-1.331299c1.344986,-1.205299 3.071991,-1.079895 3.097992,-3.2388c5.584,-1.688896 16.852997,4.206902 18.934006,9.792801l0,0zm-80.414001,-44.213497c0.591995,-1.208202 1.356995,-1.817703 2.293991,-1.827103c-0.590988,1.206501 -1.209,2.3335 -2.293991,1.827103zm59.296997,33.838902c0.968994,-1.299904 2.149994,-1.865501 3.520004,-1.771904c-0.970001,1.299904 -2.150009,1.866302 -3.520004,1.771904zm-62.317993,-0.899803c1.140991,-2.562202 -1.417999,-4.096802 -0.673004,-6.549004c1.395996,0.650803 2.182999,-0.815895 3.462997,-0.566994c-0.184006,2.032196 -0.352005,4.061501 0.462997,5.815399c0.622009,-2.006401 1.30101,-3.710403 3.154999,-4.443703c-0.485992,0.795898 -0.317001,1.408798 0.154007,1.9384c0.513992,-1.595596 2.917999,-3.717697 2.197998,-4.970299c-2.255005,2.380501 -0.895996,0.338898 -3.886002,-0.900398c-0.520996,2.572899 -2.238007,0.651794 -2.985001,0.830101c-1.151993,0.274895 -1.656998,3.014198 -2.505997,1.093597c0.528992,-3.7425 2.800003,-5.906403 4.550003,-8.002201c2.024994,-2.4259 4.419998,-5.5028 6.463989,-6.948601c1.084,-0.767498 2.75,-0.612099 3.998001,-1.508999c0.928009,-0.6656 0.386002,-2.357899 1.76001,-0.886101c-6.588013,10.333401 -3.544006,25.072098 -16.154999,25.098801zm-32.852005,-42.776501c10.138992,14.484402 19.470001,29.195 20.912003,46.097698c-2.029007,-2.716095 -0.973999,-7.243599 -2.419006,-11.215294c-1.108994,-3.049004 -3.972,-7.296104 -6.362,-10.912704c-3.309006,-5.006901 -6.535004,-10.571301 -11.472,-11.868698c0.501999,2.502098 5.565002,3.736698 5.095001,6.508999c-4.095001,-3.381199 -7.550995,-7.832901 -11.317993,-9.930401c-8.150009,-4.5382 -13.445007,1.893299 -21.050003,3.872101c-2.027,-5.430302 1.960999,-12.2859 7.337997,-15.1187c-0.167,-1.4062 0.298996,-2.9886 -0.787003,-4.139299c1.318001,0.7122 2.399002,-1.595301 2.084,-2.561401c1.455002,-0.078499 3.353004,1.3843 4.421005,-0.040499c1.468994,-2.3633 2.671997,-5.6548 5.125999,-4.595501c0.522995,0.911901 -0.617004,2.2847 -0.649002,3.349701c0.984001,1.18 0.550003,2.753201 1.533997,3.933199c-0.261993,1.261801 3.558998,1.387501 2.068001,2.991001c-4.309998,-4.444901 -8.906998,-4.107 -10.545998,-0.237301c-1.516998,3.5846 3.237999,6.892399 3.758003,8.862099c2.557999,-2.644699 -0.733002,-4.751898 -1.365005,-7.546398c1.176003,-1.5189 2.937004,-0.9984 4.055,-2.7129c3.459007,2.3517 5.514,5.0958 9.577003,5.264299zm12.707993,27.3755c4.270004,3.964401 3.931,9.2099 5.980011,13.791901c-2.984009,-4.320503 -3.339005,-9.3745 -5.980011,-13.791901zm4.854004,16.879997c-3.580994,-7.592995 -6.905991,-15.955196 -12.666992,-23.027996c-2.368011,-2.908298 -5.861008,-4.547901 -7.221008,-8.295101c11.445007,7.580402 18.742004,19.573299 19.888,31.323097l0,0zm152.854004,43.881203c-0.988007,2.053001 -5.562012,2.820999 -7.42099,6.423004c-3.585999,1.344994 -5.600006,-0.493004 -10.165009,-3.117004c1.743011,-3.933998 8.673004,-1.468002 12.417999,-3.056999c-4.847992,-3.712997 -10.703003,1.346001 -11.713989,-1.498001c4.442993,-4.425995 10.811981,-3.903 16.881989,1.249001zm-60.212997,-30.015999c-2.358002,-1.0616 -2.360001,-2.778099 -3.238007,-4.251503c2.425003,1.043106 2.581009,2.717003 3.238007,4.251503zm-19.792999,-7.176598c-1.656998,-1.577705 -0.012009,-5.472702 2.196991,-4.970703c-0.781998,2.556999 -1.334991,2.694 -2.196991,4.970703zm15.269989,25.078598c-6.685989,-5.252998 -17.631989,-6.198997 -15.511993,-14.708099c-0.716003,-1.831398 -2.061996,-2.607002 -3.027008,-3.517502c2.813004,-0.961502 6.212006,0.112 8.689011,-2.019302c1.21199,-1.790794 0.237991,-2.972595 1.451004,-4.763397c13.001999,1.2658 12.946991,16.449402 8.398987,25.008301l0,0zm36.563004,10.834999c-2.109985,-2.900002 -0.925995,-5.819 0.662994,-8.902c1.027008,0.299004 1.779999,-0.352997 2.929016,0.373001c-1.164001,2.834 -1.14801,5.338997 -3.59201,8.528999zm-31.673996,-26.064697c6.391998,9.481697 2.264999,26.044701 -9.201004,33.8657c-6.05899,0.886002 -12.360001,0.929001 -19.964005,-3.563004c-0.737,-1.644997 -1.227997,-3.355995 -1.477997,-5.137001c2.087997,-3.782997 3.194,-5.429001 5.028,-7.737999c-0.585999,-3.403999 -0.104996,-7.104996 2.748001,-11.4645c2.05101,0.1343 2.63501,2.403503 4.729004,3.836502c4.401993,3.010002 11.238998,4.999001 14.628006,7.423996c2.773987,-6.450996 3.997986,-12.471199 2.552994,-17.749794c0.319,0.175201 0.638,0.350899 0.957001,0.5261l0,0zm-15.430008,-6.012306c-2.770996,1.573105 -6.160995,0.998306 -9.166,1.756302c1.068008,-1.353699 0.497009,-2.251701 -0.097992,-3.142799c-4.625,-2.999596 -7.552002,-0.099396 -11.925995,-2.231697c1.074997,-1.355598 -0.863007,-1.873398 0.648987,-3.350998c1.826004,-0.657104 4.530014,1.741798 5.91301,-0.454903c2.806992,2.055298 7.190002,2.755798 10.263,6.260201c1.412003,-0.696098 2.722,-1.746803 4.477997,-1.2453c-0.147003,0.833595 0.033997,1.5756 -0.113007,2.409195zm-19.567993,-11.995094c-0.005005,1.084496 0.585999,4.028496 -1.182999,4.292c-0.024002,-0.918404 0.130997,-1.886002 -1.112,-2.464905c-1.507004,0.743202 -0.307999,2.2258 -2.028,1.356201c-2.973999,-1.372101 -5.277008,-2.006798 -8.518005,-1.593498c-2.634995,-2.261497 -4.362991,-2.4599 -6.910995,-4.4188c4.727005,-5.803101 14.156998,-2.745102 19.751999,2.829002zm39.826004,24.986801c-1.718002,-1.371803 -1.186005,-3.3694 -2.223007,-4.929703c1.563995,1.413696 2.404007,3.0299 2.223007,4.929703zm-88.077011,-27.420303c-0.177994,0.313301 -0.356995,0.627502 -0.535995,0.941803c-1.709,-0.582199 -2.043991,-1.5448 -3.082993,-2.312706c-0.133011,-1.734596 2.625992,0.25 1.281998,-1.148796c-1.303009,-1.259399 -1.53801,1.191299 -2.71701,0.359703c-5.857986,-6.958202 -1.617996,-16.723103 -2.007996,-25.199905c4.268005,4.636703 9.770996,7.7528 10.669998,13.280102c0.294006,1.808102 -1.373001,3.334202 0.251999,5.0811c-2.257996,3.306499 0.532013,8.865597 -3.169998,9.996601c1.115005,-4.755302 -0.714996,-7.2444 -1.673996,-11.423702c-1.031006,-4.507099 0.184006,-8.571598 -3.910995,-10.8004c1.625,7.076599 3.834991,13.992603 4.894989,21.2262zm109.674011,38.058601c2.621002,2.171997 -0.089996,2.926003 0,0l0,0zm-22.106003,0.202995c0.334991,-2.478996 -0.561005,-6.701996 0.875,-8.168999c-0.335999,2.479004 0.988998,6.583 -0.875,8.168999zm-31.056,-18.311295c-2.113007,-0.7173 -2.75,-4.962601 -2.589005,-7.602005c1.309006,0.345901 2.568008,0.524002 4.097,1.634804c-0.18399,1.900597 -0.621002,3.871597 -1.507996,5.967201zm-111.033005,-66.608101c3.375,1.1418 0.233002,2.014898 0,0l0,0zm-2.659996,-0.845201c-4.502998,-3.235399 -11.957703,-4.316299 -13.6716,-6.8981c3.951302,0.945501 10.647598,3.977501 13.6716,6.8981zm177.409996,101.251604c1.27301,-1.648003 3.141998,-1.220001 4.957001,-0.983002c-1.196991,1.911995 -2.880005,2.130997 -4.957001,0.983002zm-65.688995,-33.646103c0.186996,2.797203 -2.402008,6.171997 -0.66301,8.903099c3.318008,-4.049896 1.01001,-10.394203 6.789001,-8.625298c0.897003,0.674698 0.215012,1.789795 1.111008,2.464897c-5.035004,5.598404 -5.098007,10.499397 -8.831009,15.533401c-2.981995,-2.077003 1.383011,-6.196999 -2.320999,-8.072998c-0.702988,1.779999 -1.028992,3.455994 -2.465988,5.440994c-3.975998,-2.196999 0.261993,-6.677994 -1.518005,-9.485001c0.658005,-1.446999 1.904007,-0.851395 2.563004,-2.297897c-0.218002,-1.524498 -0.945999,-2.906898 0.22699,-4.8181c2.019012,0.268105 1.053009,3.3554 3.082001,2.313599c-0.565994,-3.008194 1.372009,-5.757698 -1.631989,-7.075996c-3.652008,-1.6026 -4.470001,3.2155 -6.886002,5.481201c-2.070007,1.941597 -4.179001,1.056999 -5.281006,2.6576c-5.983994,-3.989906 -10.315002,-2.236504 -14.910004,-1.401703c0.832001,-3.848999 1.978012,-6.359596 3.649002,-9.733597c2.80101,-0.383507 3.138,-0.828003 4.112,-3.917603c2.958008,-0.9226 5.768997,-2.3619 9.378006,-1.022804c2.304993,1.207802 1.041992,3.4086 2.970001,4.7229c3.233002,2.835205 5.015991,0.627205 7.770996,1.801704c0.975006,2.264 2.675003,4.413101 2.856003,7.131599zm-107.470001,-64.033201c3.901001,1.406101 0.723,2.2892 0,0l0,0zm-3.829002,-2.105299c0.548004,0.639599 2.786003,0.8102 2.125,1.786999c-0.548996,-0.639599 -2.786995,-0.8102 -2.125,-1.786999zm-6.012802,-2.687c6.476807,1.014 3.486801,4.499599 0,0l0,0zm-15.908897,-6.275801c1.226204,-1.855499 5.554703,-0.237499 6.336403,1.0126c-2.092102,-0.267 -4.037399,-0.0236 -6.336403,-1.0126zm187.422699,102.431402c2.585999,2.847 5.179993,5.692001 6.207001,8.973999c-8.970001,0.439995 -10.302002,-9.209999 -16.31601,-13.295998c2.937012,-1.934006 7.815002,2.885994 11.390015,3.172997c-0.347015,0.657997 -0.813019,0.909004 -1.281006,1.149002zm-174.977097,-95.588602c-6.957504,-2.704899 -12.715599,-1.2411 -19.063599,-1.8316c-10.163002,5.177 -24.765305,12.971502 -27.883804,29.153299c-5.297298,1.522301 -2.9879,8.597301 -4.029999,12.612801c-2.727501,-0.841999 -2.314701,-4.619198 -4.4631,-4.307598c-3.7075,6.279198 0.9132,9.450996 2.784801,13.888496c0.600201,1.421799 0.316998,3.098099 0.787498,4.139305c0.487,1.079994 3.220901,1.881996 1.8018,3.461899c-4.229298,-1.007805 -1.559399,-7.177002 -6.686199,-9.237404c0.785599,-1.914398 -1.235199,-3.206497 -1.476898,-5.135796c-0.192902,-1.541702 0.992599,-3.977402 1.029797,-6.231201c0.006702,-0.433903 -0.986099,-1.066902 -0.9007,-1.7314c0.353802,-2.735001 2.233601,-5.789303 3.113903,-8.790401c0.529099,-1.805698 0.334198,-3.595901 0.972698,-5.026402c2.257999,-5.057499 6.499901,-9.043297 9.9431,-13.068798c2.508701,-2.933001 3.383801,-3.546 4.4361,-5.5933c3.733002,-2.432901 7.8829,-3.418701 11.3643,-6.726601c8.755798,1.7265 20.1306,-3.2357 30.2994,3.066801c-0.275803,1.849899 -1.754303,-0.4902 -2.029099,1.357899zm180.664108,99.950602c-1.104004,-0.882004 -1.825012,-1.870003 -2.069,-2.992004c1.472992,0.780006 2.194,1.768005 2.069,2.992004zm-166.783012,-92.318701c-2.543999,-1.802 -7.043999,-3.060699 -8.348999,-5.2075c2.218002,1.249901 8.314003,2.3412 8.348999,5.2075zm103.06501,58.521399c0.487991,-1.164299 -0.662003,-1.785095 -1.646011,-1.524002c0.826004,-2.486496 4.113007,1.904205 1.646011,1.524002zm-117.692009,-65.945898c0.956001,0.388199 3.862503,0.5301 3.829002,2.105299c-1.300003,-1.5821 -3.814697,-0.364 -3.829002,-2.105299zm191.292,108.883192c-2.626007,-0.21199 -6.295013,-3.158997 -6.376984,-5.358994c1.810974,1.874008 5.496979,3.227005 6.376984,5.358994zm-36.589005,-20.733994c-0.177994,0.313004 -0.356995,0.626999 -0.534988,0.941002c-1.594009,0.084 -0.499008,-2.373001 0.322998,-1.675003c-0.134003,0.301003 -0.24501,0.596001 0.21199,0.734001zm-164.502693,-88.594799c0.413597,-1.495701 3.514198,-0.681101 3.407196,0.6383c-1.378494,-1.0569 -1.905899,0.8482 -3.407196,-0.6383zm79.791695,57.464603c-2.354996,-3.374207 0.712006,-6.464104 0.509003,-10.8414c1.889999,1.111496 1.503998,4.346397 -0.494995,5.289398c2.529999,1.145401 0.5,3.559395 -0.014008,5.552002zm82.035004,35.837196c-0.319,-0.175003 -0.638,-0.350998 -0.957993,-0.527c0.179001,-0.314003 0.356995,-0.626999 0.534988,-0.942001c0.319,0.176003 0.639008,0.350998 0.958008,0.527c-0.178009,0.313004 -0.35701,0.627998 -0.535004,0.942001zm-64.479004,-28.0383c-2.819,2.866997 -5.007996,7.161201 -6.634995,10.563202c-0.770996,1.615097 -0.427002,4.406097 -2.675995,4.7071c2.847992,-7.427505 5.873001,-17.989899 14.491989,-21.070305c-0.119995,3.542999 -3.153992,3.736404 -5.181,5.800003zm-107.203598,-64.5037c0.9925,-1.745701 5.077904,-0.0093 5.3787,0.486c-1.944,-0.685101 -3.108696,1.3349 -5.3787,-0.486zm176.769608,141.058006c1.264999,-1.649002 2.774994,-3.508011 5.125992,-4.595001c1.878998,0.268997 -0.501007,1.723999 1.378998,1.993988c5.432007,-5.802994 12.615021,-7.882996 19.686005,-11.418991c1.291016,-0.804001 1.485992,1.496002 2.182007,0.582001c3.419006,-2.223999 6.118988,-4.304001 9.335999,-5.37001c1.197998,-0.396988 3.451996,-1.067993 4.688995,-0.510986c-6.154999,3.623993 -11.959991,8.369995 -16.871002,14.201996c-2.487,2.955002 -2.730988,7.627991 -5.886993,10.354996c-0.104004,1.893997 0.492004,5.208008 -1.029999,6.231003c-2.812012,0.289993 -4.093994,-2.660995 -5.955017,-3.891998c-3.241974,6.897003 -13.973984,12.807999 -13.057983,21.860001c-4.589005,0.470001 -5.911011,-4.658997 -7.755005,-7.354004c-4.598999,0.432999 -11.703995,3.947998 -17.742004,1.367996c-5.55899,-2.375992 -10.003998,-8.233002 -9.654999,-13.959991c1.820999,-0.459 2.820007,1.544998 4.307999,2.369003c0.514008,-1.728012 -1.55899,-2.737015 -2.013,-4.196014c4.091003,2.076004 3.475006,7.754013 7.585999,10.969009c3.924011,3.065994 8.985001,3.780991 11.869003,3.436005c2.822006,-0.337006 7.725998,-2.489014 8.533005,-3.959c-6.210999,0.821991 -11.389999,5.233994 -19.598999,-0.890015c2.444,-2.712997 5.695999,-2.616989 7.901001,-6.159988c-5.046005,-1.639008 -6.458008,-5.936005 -6.89801,-9.970001c-0.669998,-0.475006 -1.860992,-0.804001 -1.645996,-1.524002c4.639999,0.720993 9.507996,2.235001 13.897003,2.078995c7.677994,-5.060989 15.569992,-9.380997 24.106003,-11.459c-2.584015,3.350006 -6.73999,3.860001 -10.082001,5.578003c-3.154007,1.621994 -5.820999,4.128006 -9.335999,5.369995c-1.617996,1.848007 -3.069,4.279007 -4.915009,5.330002c0.611008,1.679001 -1.417999,4.093002 -0.015991,5.552002c2.927002,0.119995 8.125,2.613998 12.67099,2.024002c2.565002,-2.774994 7.481018,-4.792999 8.281006,-9.039993c-4.912994,3.926987 -9.414993,9.294998 -16.050003,7.238998c0.32901,-4.272003 6.876999,-5.763 7.533997,-8.832001c-2.088989,1.354996 -6.885986,5.93399 -7.729996,2.54599c3.520996,-1.685989 7.335999,-3.641998 10.025009,-4.373001c-0.630005,-0.352997 0.030991,-1.065994 -0.423004,-1.468994c-0.766006,-0.597992 -2.740997,1.402008 -2.447998,-0.110992l0,0zm-10.001999,-43.187004c3.266998,-3.843002 1.218994,1.105995 0,0l0,0zm-28.425003,-6.362c-0.419998,-1.629005 0.936005,-4.907005 3.154999,-4.443001c-1.895004,3.220001 -3.524994,7.360001 -6.253006,7.682999c-5.578003,-3.072998 -5.763992,-7.643997 -3.319,-12.945999c2.980011,2.076996 -0.149994,5.853996 1.575012,8.279999c3.046997,-1.446999 0.012985,-4.084 2.521988,-6.646004c0.626007,0.310005 1.006012,-0.238998 1.703003,0.319c0.442001,2.519005 -1.449997,5.687004 0.617004,7.753006zm-48.345001,-26.580299c-1.384995,-1.215302 -1.778,-4.769905 0.015991,-5.552505c-0.474991,1.9823 -0.283997,3.778198 -0.015991,5.552505zm-10.149994,-8.669502c-0.097,-0.441803 -1.13501,-2.490601 0.591995,-2.145699c-0.427002,0.587601 1.138,2.4907 -0.591995,2.145699zm-56.918007,-26.969803c5.097,1.022202 2.226997,3.152702 0,0l0,0zm5.498001,34.532303c-0.919998,1.942802 -2.220001,2.555801 -3.576004,2.976295c-0.162994,-1.263596 2.094002,-3.087494 3.576004,-2.976295zm4.806,-23.9245c2.660995,5.743401 -0.008003,18.888802 -7.043999,24.5476c-3.590805,2.887001 -9.074104,1.060295 -11.7304,4.054199c-3.477203,-0.416702 -6.717606,-0.001999 -10.699501,-2.176498c2.331299,-2.6353 5.286095,-3.105003 7.420898,-6.423401c-5.070702,-2.052498 -10.540802,-2.656403 -12.656502,-7.576401c2.387199,-4.3116 4.914902,-8.132401 7.648003,-11.240997c1.878998,0.268898 -0.500198,1.724098 1.378197,1.993896c3.407402,-4.493099 8.579903,-7.160801 10.6334,-12.0718c6.402901,-1.005199 13.255905,5.020901 15.049904,8.893402l0,0zm-16.753105,-9.211102c-0.850395,4.3134 -5.696594,6.1548 -8.069298,9.7729c-2.972397,-2.265598 3.002502,-5.1828 2.521698,-6.644402c-2.502495,0.639301 -4.185699,4.126701 -7.251793,2.808601c-0.036102,-2.8955 5.662094,-4.262402 5.928398,-6.0075c-2.302803,-0.035599 -5.336205,4.756699 -7.4067,0.870098c2.767998,-1.1166 5.742699,-1.516899 8.2658,-3.487598c2.792397,1.737999 6.794098,0.312099 8.2509,2.065201c-0.8386,-0.115101 -1.5858,0.092701 -2.239006,0.6227zm95.135101,75.785892c-0.533005,-1.848999 -0.457993,-3.696991 -0.462997,-5.815994c-0.005997,-1.988998 -0.470993,-4.470001 -0.195007,-6.285995c0.228012,-1.502007 2.588013,-4.141006 -0.041992,-4.348c0.513992,-1.595001 2.917999,-3.717003 2.197006,-4.970001c-1.229004,2.731995 -3.425003,2.101997 -5.069,3.390999c0.663986,0.739998 -1.306,2.211998 -0.380005,2.880997c0.731003,0.207001 1.294998,-0.167999 2.181992,0.581001c-1.578995,2.309998 1.201004,6.210999 -1.774994,6.438004c0.154999,1.937996 2.800003,3.183998 1.955002,5.401001c-0.546005,1.432991 -1.113998,-2.162003 -2.182007,-0.583c-0.237991,2.074997 2.682999,0.812996 1.322998,3.19899c-9.62999,-4.228996 -4.465988,-22.65799 6.242004,-23.134995c-4.399002,8.527 3.186005,15.256004 -3.792999,23.246994l0,0zm-130.514397,-90.913193c0.2346,-0.711899 1.341,-1.6744 1.013798,-0.678799c-0.233398,0.713799 -1.341499,1.675198 -1.013798,0.678799zm128.800392,75.142197c-0.319,-0.175995 -0.638,-0.350998 -0.956985,-0.525993c0.177994,-0.314003 0.356995,-0.628006 0.534988,-0.942001c0.319,0.174995 0.638,0.350998 0.957001,0.526001c-0.179001,0.313995 -0.356995,0.627998 -0.535004,0.941994zm-133.025394,-68.815598c-0.226597,-0.7673 0.923,-3.904198 2.140701,-3.765099c-0.395599,0.939598 -0.538799,3.798 -2.140701,3.765099zm17.267498,34.826302c-0.205299,1.551796 3.547501,3.922203 4.575806,1.8983c-2.846901,-2.2733 -4.509201,-5.060402 -4.082001,-7.186798c-1.837898,-0.318504 -3.57,-0.271904 -5.5896,-1.219604c1.569496,-1.586502 5.508995,-2.277901 5.604095,-4.332497c-3.071396,0.152397 -7.933598,6.425797 -9.109997,0.552299c6.965298,-1.472504 12.112698,-9.261803 18.517803,-12.679501c-0.672302,1.7728 -3.249207,4.0737 -1.718506,5.233799c1.561401,0.7393 3.197205,-2.4823 3.941704,-0.304001c-4.673599,4.099403 -6.257904,11.156403 -10.745705,14.4804c4.791504,3.352798 7.903404,6.012398 13.403305,7.3694c-2.504303,3.439499 -5.758003,4.264999 -8.857903,5.6334c-2.496803,-1.5653 -8.569199,-1.618202 -7.869797,-4.944496c3.885994,1.820396 9.583099,2.516998 11.024498,0.500298c-6.736198,1.702797 -16.066902,-2.360703 -16.4856,-9.681602c2.873096,-0.553596 4.123501,1.661102 4.997601,3.365303c0.830101,-0.0317 5.319397,1.285202 3.618095,1.371796c-0.477798,-0.266197 -0.783897,0.067406 -1.223801,-0.056496l0,0zm178.811897,76.689293c2.326004,0.115005 6.102005,-2.092987 7.617004,-0.136993c-2.382004,-0.311996 -6.382996,1.117004 -7.617004,0.136993zm-32.548996,-17.895996c-1.074005,-1.612991 3.783997,-3.414993 2.084,-2.561005c-0.744995,0.67601 -0.994003,3.084 -2.084,2.561005zm-173.793098,-99.879799c0.029301,0.0242 -0.277901,0.4212 -0.267498,0.470501c0.819698,3.8041 -1.804501,-2.133301 0.267498,-0.470501zm-3.000801,6.3825c-0.221897,-0.644398 0.684502,-3.5625 1.873402,-3.294899c-1.459499,1.112 -0.066002,3.390499 -1.873402,3.294899zm66.955902,38.048599c0.838997,-1.285698 1.423996,-3.456001 2.831001,-2.768394c0.320999,1.2855 -1.518005,2.958694 -2.831001,2.768394zm124.490997,72.772705c3.477005,-1.001999 9.915009,0.862991 12.460999,1.289993c-3.985001,0.158997 -8.229996,-0.589996 -12.460999,-1.289993zm-52.440994,-28.214996c-0.202011,-1.337006 -3.095001,-2.687004 -0.365005,-2.673004c-1.787994,-2.013 -4.046005,-3.894005 -3.871002,-6.453003c3.32901,3.168999 5.192001,6.746002 7.375,10.233994c-2.58699,-0.237 -1.973999,-3.371994 -3.560989,-2.575996c0.977997,0.088005 1.549988,2.080009 0.421997,1.46801zm-123.168503,-69.573605c-0.996799,2.583099 -1.2547,-2.016502 -2.182499,-0.581303c1.568398,2.151199 -1.270702,3.1898 0.730499,5.344101c1.9356,1.126198 3.870499,2.249603 5.533501,2.424896c0.236298,2.576004 -0.3078,5.369102 2.856297,7.131706c-0.816498,1.362396 -2.087498,1.146996 -3.252399,1.300499c-1.636299,-4.058304 -6.376999,-6.971901 -11.8536,-8.988602c-0.4249,-3.844799 0.973602,-8.1959 0.5658,-12.046299c2.659599,2.637798 5.600403,3.7827 7.869301,4.9454c-0.264698,-0.149002 -0.758999,0.080997 -0.266899,0.469601zm194.009506,108.523602c0.434998,-0.824997 1.054993,-1.003998 1.760986,-0.886002c-0.434998,0.824005 -1.054993,1.003998 -1.760986,0.886002zm-190.139408,-102.070702c-1.476997,-1.041298 -1.7658,-2.414501 -2.279198,-3.724503c1.1106,1.060902 1.494499,-0.4053 2.449398,0.111702c-0.386799,1.295097 1.280899,2.0196 -0.1702,3.612801l0,0zm167.164402,89.437691c0.811005,0.656006 4.108002,0.82901 2.393005,1.31601c-0.692001,-0.749008 -2.772003,0.287003 -2.393005,-1.31601zm-27.242996,-10.651993c1.73999,0.998993 5.121994,1.699997 5.209991,4.098999c-6.849991,-2.899994 -12.796997,-7.628006 -15.950989,-10.623001c-1.265015,-1.201004 -5.025009,-1.987 -3.237015,-4.251999c0.314011,-0.306 0.540009,-0.919998 1.013,-0.679001c1.66301,4.436005 7.065002,8.068008 12.965012,11.455002l0,0zm6.645996,4.889008c0.699005,-1.302002 1.945999,-0.578003 2.716995,-0.360001c4.695007,1.327988 11.164001,4.819 14.684006,6.219986c-5.462006,-0.929993 -13.057999,-4.457993 -17.401001,-5.859985l0,0zm38.559006,20.582993c0.610001,-1.210999 -0.076004,-1.975998 1.549988,-1.619995c-0.481995,0.659988 -0.817001,1.830994 -1.549988,1.619995zm-61.479004,-34.419998c3.375,1.141998 0.233994,2.014999 0,0l0,0zm-101.407501,-41.546104c3.051498,-1.4431 5.873299,0.394806 8.841995,-0.080994c3.476601,-0.557503 6.027504,-3.3619 9.702003,-2.698105c-5.069099,4.795105 -11.605904,4.483398 -18.543999,2.779099l0,0zm-23.227901,-17.713699c-3.336201,1.0093 -6.617199,2.2127 -9.969398,3.168503c-2.634003,-1.777 -2.223503,-4.400604 -3.124802,-6.659401c-2.288898,-2.931099 -3.821701,-6.070999 -4.714699,-9.389599c0.4356,-0.823601 1.054199,-1.0037 1.760597,-0.885601c1.3708,6.5233 15.6702,7.007202 16.048302,13.766098zm5.3633,6.037605c-2.035801,-0.611801 -5.727798,-3.152702 -4.1381,-5.981506c2.925301,0.129303 3.730099,3.871407 4.1381,5.981506zm6.742401,8.032097c2.8778,1.130898 5.304695,0.696198 8.040001,1.331802c1.999596,3.406799 1.370499,7.543999 1.673195,11.423294c-6.432396,-3.437798 -17.091496,-4.486595 -15.147194,-12.035393c1.966599,-0.346306 2.398499,2.0989 4.363098,1.163895c-1.816299,-2.8237 1.668495,1.278305 1.0709,-1.883598zm-13.149902,-2.286499c0.697102,-1.515099 0.165401,-2.688499 0.438103,-4.084c1.1208,0.631096 1.869598,-0.036499 3.138798,1.1082c-0.5504,4.023499 -0.927101,1.845802 -3.5769,2.9758zm-3.294498,-3.047501c0.6707,-1.407097 1.480801,-2.323898 2.563099,-2.297104c0.283501,0.962402 -1.3125,2.548203 -2.563099,2.297104zm-15.176601,-0.930702c1.206802,8.772705 -8.0644,26.9468 -18.703798,21.844803c0.535398,-0.942001 1.070398,-1.883003 1.605799,-2.825005c1.942801,0.219002 3.9139,0.532005 5.8575,0.751007c9.536001,-6.443001 8.451502,-17.8283 8.593699,-26.168503c3.380802,2.3629 0.412201,6.490097 1.519402,9.485199c-0.037701,-0.730896 0.9464,-4.797798 1.127399,-3.087502zm-32.959139,53.548798c-1.4566,-0.972 -0.61783,-5.250992 1.45112,-4.763c0.19607,1.399002 -1.4451,3.307999 -1.45112,4.763zm1.59089,2.729004c-1.23145,-0.600998 -2.00886,0.074005 -1.64701,-1.522995c0.98566,-0.263 1.60886,0.503998 1.64701,1.522995zm2.54768,3.253998c0.85857,-1.296997 4.25637,-0.973999 4.63107,0.693008c-1.4859,-0.029999 -2.739,0.75 -4.63107,-0.693008zm-7.73043,2.546005c0.6438,-2.046005 3.11276,-4.947998 3.78732,-2.240997c-1.71524,-0.100006 -1.64209,1.743988 -3.78732,2.240997z" clip-rule="evenodd" fill-rule="evenodd"/>
   <path id="svg_56" fill="#3a6b09" d="m123.001953,103.581429c-0.79599,0.082458 -5.919922,-2.872246 -7.56115,-1.06739c2.722404,1.05574 5.235069,1.382095 7.56115,1.06739z" clip-rule="evenodd" fill-rule="evenodd"/>
   <path id="svg_57" fill="#3a6b09" d="m118.987122,110.642517c-2.851158,3.264885 -5.24353,5.368263 -9.180115,7.308823c-5.282166,-2.018646 -9.36673,0.124702 -13.588043,1.797592c-1.472504,-3.117004 3.839073,-8.13163 6.788605,-8.62484c1.004211,1.377045 -1.559265,1.89003 -2.083771,2.560577c0.984009,0.111397 4.821739,-1.884659 6.77182,-3.072876c1.544434,-0.70211 3.685242,0.669685 4.745575,-1.715805c-0.430389,-1.517502 -2.42849,-1.332932 -3.195831,0.096619c-6.496895,-2.781593 -16.305939,5.772736 -14.843628,12.845963c1.584045,1.304024 2.13224,-0.994148 3.252403,-1.300552c0.72464,1.911896 -0.348289,4.323654 -1.296684,6.70079c0.797028,0.43824 1.594971,0.876945 2.392891,1.315666c3.286583,-3.985565 8.259727,-2.105904 11.574814,-5.992142c0.735664,-1.181175 2.214272,0.224152 3.195847,-0.096565c-1.876472,-3.035515 4.265244,-8.868851 6.422447,-11.296288c1.212646,0.719429 -0.642578,2.292053 1.590446,2.727028c0.232185,-1.850929 1.27491,-2.03952 2.67627,-4.707214c-3.063499,0.49704 -5.6231,-1.863533 -9.05294,-0.652519c-0.124023,1.283714 3.632355,0.0495 3.829895,2.105743zm-18.573479,13.88398c1.242973,-3.618637 3.549614,-3.538467 4.971428,-6.535187c3.028931,1.188744 5.650299,0.96534 7.674812,-1.341408c0.838005,0.427551 1.02066,1.036644 0.89975,1.730911c-4.37516,2.533516 -8.311806,6.59697 -13.54599,6.145683zm-0.308662,-3.877136c0.501472,-0.800064 0.724823,-1.522789 0.591133,-2.14624c0.371666,0.024521 2.508049,-0.157387 1.91449,1.05262c-0.81855,-0.338898 -0.491707,2.666092 -2.505623,1.09362z" clip-rule="evenodd" fill-rule="evenodd"/>
  </g>
  <switch/>
  <g id="svg_2">
   <path id="svg_3" fill="#3a6b09" d="m470.878021,1.13736c1.549591,-1.18697 2.123749,1.02004 3.673401,-0.16693c1.300446,2.33556 1.716827,3.24651 1.929443,4.49977c-1.297638,1.24312 -1.900909,0.07297 -2.927856,0.37436c-1.141449,-1.98197 -0.801392,-3.54955 -2.674988,-4.7072z" clip-rule="evenodd" fill-rule="evenodd"/>
   <path id="svg_4" fill="#3a6b09" d="m291.028992,153.204834c1.392181,0.296219 2.416595,1.8694 3.364868,3.710205c-1.521301,0.152847 -2.375946,-2.010956 -3.364868,-3.710205z" clip-rule="evenodd" fill-rule="evenodd"/>
   <path id="svg_5" fill="#3a6b09" d="m478.79776,54.857601c1.373474,-1.041943 2.367981,-0.76527 2.983459,0.830097c-1.373505,1.041962 -2.367981,0.76527 -2.983459,-0.830097z" clip-rule="evenodd" fill-rule="evenodd"/>
   <path id="svg_6" fill="#3a6b09" d="m297.700806,159.419144c3.791992,0.81842 6.244904,6.300858 9.501007,8.983627c-0.855865,0.950836 -1.303711,2.015182 -2.813782,2.783997c-2.401947,-4.095535 -9.18277,-7.196106 -6.687225,-11.767624z" clip-rule="evenodd" fill-rule="evenodd"/>
   <path id="svg_7" fill="#3a6b09" d="m493.197418,63.619301c1.552979,0.202038 2.638489,2.030327 3.842194,3.447632c-1.917603,1.064011 -2.726624,-1.726402 -3.842194,-3.447632z" clip-rule="evenodd" fill-rule="evenodd"/>
   <path id="svg_8" fill="#3a6b09" d="m401.734375,122.581451c-1.715179,2.836151 -4.928741,1.94133 0,0l0,0z" clip-rule="evenodd" fill-rule="evenodd"/>
   <path id="svg_9" fill="#3a6b09" d="m401.847107,124.990494c-1.32196,2.343727 -4.18985,1.794937 -5.951996,3.892746c0.30127,-1.666557 3.983124,-3.949669 5.951996,-3.892746z" clip-rule="evenodd" fill-rule="evenodd"/>
   <path id="svg_10" fill="#3a6b09" d="m336.010468,170.475113c-1.262024,0.441055 -0.551147,1.431702 -2.123932,1.787018c-0.468964,-0.239273 -0.933441,-0.488998 -1.281616,-1.148743c0.317078,-1.126465 2.804016,-2.643448 3.405548,-0.638275z" clip-rule="evenodd" fill-rule="evenodd"/>
   <path id="svg_11" fill="#3a6b09" d="m437.858032,113.212227c4.029388,2.162323 5.622406,12.77494 12.063843,11.282425c1.401428,-2.521545 0.720184,-7.718231 -1.19931,-9.843933c1.23465,-2.226952 3.150421,4.056168 2.196808,4.970261c0.816345,2.20089 1.586304,3.209457 1.929474,4.499794c-2.105255,2.83419 -6.588531,2.78904 -8.091797,0.127319c-0.390533,-0.691383 -2.755768,-1.544189 -2.773132,-1.564476c-2.163971,-2.613304 -2.669006,-7.19664 -4.125885,-9.47139z" clip-rule="evenodd" fill-rule="evenodd"/>
   <path id="svg_12" fill="#3a6b09" d="m442.487457,112.51976c2.218964,1.013489 5.301178,5.400436 5.771973,7.946114c-2.140961,-1.890434 -4.007629,-4.742912 -5.771973,-7.946114z" clip-rule="evenodd" fill-rule="evenodd"/>
   <path id="svg_13" fill="#3a6b09" d="m513.351563,74.775307c-0.247437,-1.257034 2.578613,-1.65905 3.559814,-2.575714c0.594788,2.085609 -2.185913,1.72718 -3.559814,2.575714z" clip-rule="evenodd" fill-rule="evenodd"/>
   <path id="svg_14" fill="#3a6b09" d="m517.180725,72.669037c1.35321,-0.971214 1.864258,0.987473 2.77179,1.564056c-1.583984,1.589645 -1.800354,2.26207 -3.559326,2.576584c1.544678,-0.275681 -1.029968,-1.67321 -1.548035,-1.61969c1.263306,-0.7052 2.964966,-1.288414 2.335571,-2.520935l0,-0.000015z" clip-rule="evenodd" fill-rule="evenodd"/>
   <path id="svg_15" fill="#3a6b09" d="m319.547516,185.709213c-0.191742,-1.448074 2.328644,-0.789474 2.715637,0.358749c-1.301819,1.260315 -1.537018,-1.190399 -2.715637,-0.358749z" clip-rule="evenodd" fill-rule="evenodd"/>
   <path id="svg_16" fill="#3a6b09" d="m559.525696,138.347794c-1.022583,0.288712 -2.519653,2.225845 -2.926941,0.373917c0.290466,-1.140518 2.336243,-2.187973 2.926941,-0.373917z" clip-rule="evenodd" fill-rule="evenodd"/>
   <path id="svg_17" fill="#3a6b09" d="m536.656006,69.3694c1.208984,1.399597 2.796997,1.483704 4.052979,2.712799c2.796997,7.479202 2.278992,13.139503 8.997009,19.147102c-6.083984,3.786896 -11.432007,-2.129799 -14.016968,-5.881798c-1.011047,1.256996 -0.01001,3.731094 0.493958,5.289398c1.217041,3.772499 3.596008,7.680199 7.585999,10.037102c2.737,-0.18 5.570007,-0.694901 7.882019,0.606995c0.533997,2.613998 0.948975,4.438004 -0.461975,5.815002c-6.679016,6.507996 -19.796997,-7.304504 -20.917053,-16.9161c-2.667969,3.353096 -1.179993,9.7743 -0.967957,15.978096c0.513,14.987 10.565979,44.366005 31.713989,32.601006c1.921021,-1.975006 -0.947021,-5.283005 -1.354004,-7.904999c7.731018,-4.038002 8.007019,7.395996 5.406982,10.617996c1.119019,0.309998 2.235046,0.628998 3.251038,1.300995c0.922974,2.503006 1.328979,4.861008 0.07196,6.757004c-2.682007,0.923004 -5.450012,2.141998 -7.346008,0.334c1.594055,-1.214996 5.005005,-0.714996 4.517029,-3.102997c0.166016,-2.315002 -3.353027,-1.768997 -4.799011,-2.921005c-3.365967,1.438004 -7.348999,2.302002 -10.21698,1.914001c-6.73999,-0.912994 -15.192993,-7.475998 -19.367981,-15.296005c-8.17804,-15.318993 -6.03302,-35.407692 -1.937012,-46.507591c-0.907043,-1.837303 0.203979,-3.113098 -0.22699,-4.818001c3.733948,-0.170204 2.388977,-7.409103 7.329956,-5.885902c1.276001,2.031898 -2.19397,2.792603 -0.461975,5.815498c1.10199,0.660904 1.209961,-2.272797 0.575989,-3.4058c1.663025,1.661903 1.622009,6.256203 -0.348999,8.2248c2.455994,3.133202 4.919006,6.242805 8.164001,6.630402c0.151001,-1.2005 -1.062012,-5.158501 -3.05603,-7.586502c-0.951965,-2.919098 -0.44696,-8.082497 -2.690979,-10.258797c-2.348999,-2.282097 -5.612976,-1.453697 -8.09198,0.126503c-5.945007,3.788994 -2.952026,15.189995 -7.244019,18.194695c-0.234009,0.859901 0.403992,1.961304 1.127014,3.087601c-0.981995,1.179504 -2.617004,2.178299 -4.518005,3.102699c-0.778015,-1.753098 0.564026,-1.9086 1.857971,-2.257896c-2.677979,-4.076797 4.151001,-8.634399 2.628052,-11.949699c-1.425049,-3.099998 -4.290039,-1.000404 -6.024048,-2.864998c-2.320984,1.274895 -0.20697,2.278297 -0.575989,3.4058c-1.722961,2.030197 -4.096985,3.8797 -6.85199,5.622795c-0.895996,0.7817 -1.292999,-0.171799 -1.76001,-0.885696c-0.173981,1.6688 -2.233002,2.813194 -2.488983,4.457901c2.794006,2.891396 7.042999,0.721298 10.597992,0.968094c-1.203003,3.410904 -7.480011,2.290504 -10.21701,1.913406c-4.10498,5.1157 -12.931976,6.959694 -18.713989,9.058701c-1.419983,-3.565002 0.283997,-6.261101 0.294006,-9.429405c-6.268005,0.318901 -12.670013,1.100899 -18.212006,-1.104095c-4.369995,-3.480606 -8.761993,-6.884903 -11.964996,-14.424805c1.381989,0.901001 1.748993,-0.053596 1.645996,-1.524002c-0.825989,-2.423897 -1.397003,1.185402 -1.971008,-0.152199c-3.151001,-4.574295 -0.255981,-7.468094 -1.522003,-11.519394c2.723022,-5.146004 4.414001,-11.487404 10.129028,-14.221905c4.883972,-2.335999 11.394989,1.009201 16.338989,-2.191799c3.984009,2.952801 8.786011,3.065399 12.794006,5.937199c-0.375,1.431702 -2.131012,1.472103 -3.348999,1.841702c5.147003,3.580502 9.843994,8.726303 15.468994,10.644699c1.290985,-4.295197 0.243988,-11.25 7.257996,-12.6427c3.611023,-7.251499 -5.252991,-17.643898 -10.179993,-23.4384c-3.862,-1.977898 -7.611023,-4.347298 -11.358002,-6.726999c-9.505005,-0.286598 -20.737,-1.718699 -32.352997,6.058201c1.889984,3.788401 4.171997,11.621801 0.888977,13.721201c-4.565979,2.920498 -8.855988,-5.906002 -14.228973,-5.1478c-3.358002,3.8209 -8.884003,7.038498 -10.51001,11.342598c-1.268005,1.1441 -2.016998,0.478001 -3.138,1.107403c-3.200012,6.771698 -10.992004,12.265202 -10.593018,20.0378c-1.300995,1.090599 -1.924988,2.370697 -3.023987,3.517502c-2.518005,11.320595 -8.755005,21.605896 -13.700012,32.249199c8.593018,-7.970001 20.590027,-6.505005 26.960999,-11.123405c1.584015,-1.3041 2.132019,0.993607 3.251007,1.300507c9.65802,-2.772705 17.735016,-0.042702 26.091003,1.710899c-0.009003,3.035995 -6.363007,4.306 -7.27301,7.090996c-4.39798,0.349998 -8.30899,-0.988998 -12.98999,0.348999c-2.996002,-0.786995 -5.363983,-3.758995 -8.73999,-3.224998c0.617981,3.949005 5.875,3.833 7.951996,7.364998c-2.884003,0.224007 -4.485992,-4.006996 -7.304016,-4.014c-1.248993,1.502007 3.921021,4.789001 1.507019,5.967003c-1.540009,-3.044998 -4.050995,-6.449997 -5.350006,-9.415001c-10.061005,-2.673996 -25.682007,8.017998 -31.632996,16.165001c4.682983,-0.099998 11.520996,-1.268997 13.425995,3.736c-8.997986,2.208 -15.645996,13.634995 -23.765991,11.220001c-9.194,5.214996 -19.286011,12.278992 -29.395996,16.787003c-13.855011,6.179001 -29.201019,6.330994 -40.654999,6.917999c2.85498,2.679993 6.47998,2.682999 9.332001,5.369995c5.210999,0.554001 11.268982,-1.837997 16.605988,-1.720993c-1.226013,3.621994 -4.095001,6.787003 -4.656006,10.593994c-1.964996,0.641998 -1.596008,1.932999 -3.559998,2.576004c3.028992,3.658005 5.242004,4.125992 7.72699,2.54599c3.09201,-1.967987 1.157013,-7.195999 5.246002,-8.447998c1.927002,-0.589996 5.335022,0.959 6.559021,3.807007c3.171997,7.375992 -9.03302,16.513 -19.063995,17.285004c-3.353027,0.255997 -6.900024,-1.160004 -10.654022,-2.172012c-0.796997,3.881012 -7.885986,9.194 -11.75,5.845001c0.411011,-1.998993 -0.317993,-4.315994 0.196014,-6.286987c-2.309021,-1.465012 -2.360992,-3.528 -4.166992,-5.121002c-0.996002,-0.878998 -2.613007,-0.695007 -3.252014,-1.302002c-0.602997,-0.572998 1.540009,-1.553009 -0.589996,-2.145996c-1.868988,-0.520004 -1.166016,-1.554001 -2.40799,-4.237c-1.912018,1.151993 -4.460999,3.134995 -7.710999,3.006989c-1.647003,-2.968994 -1.733002,-5.501999 -1.353027,-7.905991c-4.053986,-3.055008 -5.578979,-13.188004 -11.696991,-13.95401c-2.071991,-5.386993 -6.604004,-5.362 -10.937012,-8.190994c-2.815979,-5.822998 -4.710999,-8.061005 -6.475983,-12.501999c4.613007,0.975998 13.944,-3.417007 17.548004,-7.798996c-0.535004,-0.94101 -1.070007,-1.883003 -1.605011,-2.823006c-1.949005,-0.578003 0.112,1.360001 -2.125,1.786003c-1.609985,-1.872002 -4.067993,-0.794006 -6.600006,0.541992c-2.269989,-0.975998 -4.755981,-1.203995 -6.55899,-3.806999c-2.998993,-0.307999 -5.591003,-2.034996 -7.838989,-4.954994c4.445984,-2.841003 10.561981,-7.276001 15.845001,-7.480003c1.931976,2.149002 4.498993,2.098999 6.55899,3.806999c2.177002,3.727005 2.447998,6.141998 5.294006,8.209c2.313995,-0.940994 2.326996,-2.521996 3.502991,-3.780998c-2.190002,-7.613998 -6.410004,-12.319 -5.803009,-19.051003c0.288025,-3.188896 0.468018,-3.587898 1.420013,-6.3424c0.472992,-1.366798 0.78299,-4.4095 2.43399,-5.663795c1.519012,-0.146004 1.877014,3.746101 3.365021,3.710297c2.312988,-1.531502 2.556,-4.637001 6.161987,-4.626297c0.466003,3.2658 -1.929993,3.642799 -1.152008,6.8125c0.584991,2.385597 3.10202,3.992599 3.744995,6.589699c0.973999,3.933998 -1.710999,7.447998 -2.207977,10.482002c-0.984009,0.915001 -1.798004,1.876999 -3.559021,2.575996c-0.668976,1.135002 -1.019989,2.358002 -1.053986,3.668999c4.440002,-2.458 14.761993,-9.665001 19.419983,-4.502998c-9.784973,5.285004 -11.848999,17.431007 -24.019989,16.301003c-6.104004,3.735001 -12.153992,8.018005 -18.237,8.796997c1.722015,2.669006 7.549988,1.042007 12.834991,1.589996c6.095001,0.631012 12.973022,3.488007 19.322021,-1.362c3.269989,-2.496994 2.565002,-6.235001 5.190979,-9.651001c4.479004,-0.439987 9.489014,2.496002 10.936005,8.194c9.179993,-2.487991 21.584991,-8.733002 29.692993,-5.212997c3.790009,1.645996 8.416016,6.934006 6.955017,12.238007c-3.819,2.307999 -6.860992,-1.556 -9.739014,1.649002c1.718994,-2.585999 -3.300995,-5.901001 -5.503998,-7.473999c-1.054993,0.75 1.041016,1.728989 1.549011,1.618988c0.506989,1.656998 -0.927002,1.315002 -2.125,1.787003c-0.230011,2.53801 3.778992,0.283997 4.587982,3.654007c-9.128998,4.671997 -18.263977,9.360992 -25.21698,6.457001c2.268005,-1.794998 7.240997,-0.924011 11.326996,-4.376999c1.270996,1.806992 -2.687012,2.15799 -3.770996,3.309998c4.492004,-0.210999 10.007996,-3.985001 14.944,-5.749008c0.222992,-1.776993 -3.64502,-1.276993 -5.221008,-1.453003c-1.346985,-1.695999 2.312012,-1.997986 3.291992,-3.046997c-2.875,-3.074997 -7.059998,-1.593994 -10.442993,-2.904999c4.915009,-1.509003 8.789001,-2.153 12.510986,-0.085999c3.402008,1.888 5.310028,6.791 9.59903,5.841003c1.421997,-1.057999 2.369995,-2.247009 0.786987,-4.141006c-1.434998,-0.220993 -2.317993,4.708008 -4.841003,1.427002c1.110992,-1.061005 1.494995,0.406006 2.447998,-0.110001c0.671997,-3.899002 -2.712006,-3.949997 -4.701996,-6.063995c1.647003,-0.119995 2.980988,0.839996 4.476013,1.246002c-0.167999,-1.804001 -3.976013,-2.945999 -6.446014,-1.397003c-0.540009,-0.811005 0.020996,-1.315002 -0.591003,-2.145996c-7.044006,-1.186005 -16.652985,6.554001 -24.415985,7.869995c-1.101013,-4.466995 -4.556,-9.391998 -8.277008,-9.039993c-3.210999,3.465988 -2.980011,7.888992 -6.837006,11.175995c-11.135986,2.774994 -20.118988,-1.938004 -30.932007,-0.283997c1.56601,0.562988 0.177002,0.588989 0.324005,1.675003c1.115997,1.237 0.766998,-1.013 1.912994,-1.053009c14.482025,2.869995 28.605011,6.986008 42.940002,10.362c-3.263977,2 -8.423981,-1.509003 -12.567993,-1.119003c-4.190002,-2.237 -8.889008,-2.707993 -13.427002,-3.735001c9.886993,3.44101 19.785004,6.840012 30.526001,7.304001c0.567017,0.686005 0.007996,1.059006 0.324005,1.67601c12.484009,-2.804001 29.105011,-4.389999 42.880005,-11.848999c6.740997,-3.651001 13.144989,-7.710007 17.053986,-13.089005c-0.518982,-2.943008 -3.285004,-3.360001 -4.166992,-5.121002c-3.68399,-7.360001 4.893005,-15.556999 -3.312988,-23.510002c8.128998,0.254005 17.175995,9.020004 16.075989,18.343002c1.800995,-0.043999 2.484009,-3.789001 3.924988,-5.248001c0.447998,-6.188995 -1.031982,-14.361 -4.423004,-21.045502c-0.553986,-1.092697 -1.77597,-0.973999 -2.026978,-1.356094c-0.550018,-0.840004 0.048981,-2.247406 -0.381012,-2.8806c-0.904999,-1.333702 -2.216003,-3.354599 -3.842987,-3.447205c-0.58902,2.213303 1.028992,5.042099 0.341003,7.227699c-4.516998,-2.5037 -9.143005,-4.626396 -15.706024,-0.010597c-0.681976,-0.893898 -1.810974,-0.236397 -2.716003,-0.359596c-1.287994,-0.190903 -1.807983,-3.0494 -3.096985,-3.238907c-1.269989,1.244102 -1.916992,3.944901 -1.687012,5.870705c0.177002,1.489502 1.688019,2.247101 2.139008,3.765099c0.425995,1.431 0.546997,4.692001 0.817993,6.963997c0.649017,5.446007 0.834015,8.101006 -4.654999,10.594002c-2.276978,4.315002 -4.824005,6.581001 -10.623993,8.932007c-5.595001,2.268997 -6.059998,2.013992 -11.230011,1.235001c-7.482971,-1.128006 -11.508972,-4.582008 -17.016998,-12.264008c-3.056,-4.264 -3.235992,-4.902 -3.647003,-9.734001c-0.44397,-5.211998 0.069,-9.4655 0.603027,-13.305901c2.700989,-1.172997 4.103973,-4.8675 6.527985,-7.2985c-1.917999,-3.138496 -6.221985,2.028305 -8.148987,-1.0784c0.756989,-5.667297 10.416992,-10.549194 16.84198,-12.354797c0.471008,-1.189499 -0.027985,-2.649498 0.309021,-3.876297c5.472992,-3.627007 9.514984,-2.2733 13.889984,-2.079506c6.369995,-3.468498 14.665009,-6.554497 20.011993,-2.3582c-0.763977,1.637001 -4.020996,2.579704 -5.951996,3.892807c1.748016,1.521095 3.651001,-1.055 5.320007,-1.690002c2.471985,-0.942001 5.463989,-1.186699 7.5,-2.272202c2.710999,3.187897 7.894012,3.644501 8.966003,8.042603c-2.713013,0.706696 -6.997009,0.500198 -8.936005,3.061798c3.183014,3.1334 10.894012,4.632797 15.468994,10.644699c4.873993,6.402901 7.274017,13.780899 8.575012,20.614899c-2.048004,0.738998 -0.188019,-1.994995 -2.351013,-3.030998c-0.485992,2.638 0.276001,5.624001 0.395996,8.431999c3.199005,-1.092003 -0.184998,-4.014999 3.447021,-4.985001c0.559998,-7.380997 2.701996,-14.256096 2.86499,-22.583397c0.053986,-2.736099 0.356995,-6.1129 -0.606995,-7.6987c-1.432007,-2.356003 -4.036011,-1.889305 -6.291016,-3.335403c-1.654999,-1.062401 -3.431,-2.836494 -4.376984,-4.388596c-4.373016,-7.168003 -3.09201,-17.250004 -10.237,-24.643501c3.259003,-0.746601 6.330994,2.038498 9.006989,3.695099c4.248993,2.629601 7.946991,5.4575 11.584991,11.545898c1.999023,-3.671398 -0.306976,-8.5396 0.392029,-12.5728c-0.90802,-0.5774 -1.419006,-2.536098 -2.77301,-1.564499c0.38501,-3.184799 -3.950012,-4.2696 -5.503998,-7.475201c-2.201996,-4.538898 -1.253998,-10.027599 1.826996,-13.3619c1.850983,1.499802 3.515991,3.648701 4.968994,6.5338c2.619995,-4.106199 5.820007,-9.895599 12.213013,-11.6609c1.009979,2.923201 -1.730011,4.8027 -2.110016,7.3395c1.962006,4.112 0.535004,7.282 0.509003,10.841501c-3.682983,3.466801 -7.095001,7.008698 -5.822998,11.8531c3.893005,-1.7421 6.263,-7.2019 11.312012,-9.930401c-0.572021,5.256401 -0.945007,10.569099 0.524994,16.393902c1.997986,-0.0438 2.636993,-3.345501 2.700989,-5.192402c5.536011,-6.509399 7.006012,-14.723801 12.985016,-21.3536c2.561005,-2.841 7.524994,-5.254499 8.919983,-8.614201c-0.716003,-2.3125 -1.095001,-4.531399 -0.550995,-6.4934c3.649994,-1.4874 6.192993,0.8759 8.319,4.691701c3.393005,1.3769 7.864014,-2.568602 11.326996,-4.377501c1.45401,-0.759501 3.046997,-0.6609 4.095001,-1.6348c2.188019,-2.033 1.643005,-4.90345 3.123016,-6.66031c-1.995026,-0.92516 -2.806,-3.20331 -3.210022,-5.64814c1.428009,-2.27515 3.628998,-1.09254 5.587006,-1.21954c-0.932007,1.42435 -2.277985,1.15782 -2.54599,3.25399c1.069,0.95202 2.059998,2.1771 2.885986,3.97372c-3.402985,6.49348 -5.924988,12.36988 -15.181,16.383281c4.837006,1.544899 13.972015,-5.509901 16.47702,-9.682501c1.647003,-2.7427 0.821991,-6.19173 3.811981,-7.65819c0.740997,4.03679 -0.622986,7.48729 -4.175995,10.32999c3.575989,1.1031 8.476013,-2.3975 12.608002,-3.2282c3.63501,1.3663 8.415009,-1.2514 11.610992,1.6454c1.444,-1.290501 2.236023,-0.310301 3.615021,-1.371301c4.988983,1.7584 9.549988,4.278001 14.343018,7.5566c0.68396,0.468102 1.322998,0.9669 2.02594,1.356701c0.488037,0.2701 1.92804,0.3981 2.238037,0.622601c4.109009,2.962799 5.651001,7.175299 9.135986,11.656797c0.460999,0.5942 1.617981,0.731003 2.026001,1.356403c6.491028,9.952198 7.625,22.531399 7.437012,32.977798l0,0l0,0l0,0zm-50.083008,-52.7703c0.407013,1.8519 1.903992,-0.0861 2.927002,-0.373899c2.028992,0.876999 4.368011,0.683399 6.868011,-0.071701c-2.707001,-1.792199 -6.399017,-0.1565 -9.795013,0.445601zm-90.157013,107.671904c0.272003,0.912994 1.396027,0.814995 0.803009,1.411995c-3.001984,2.591995 -5.787994,5.070999 -8.765991,6.675995c5.941986,6.936005 13.949005,-6.97599 21.966003,-7.758995c-3.372009,-4.007996 -9.584015,-4.516998 -14.003021,-0.328995zm14.939026,-26.754005c-2.996002,-3.724701 4.356995,-9.796402 1.080994,-13.569298c-1.763,7.962997 -4.184998,15.743401 -8.240997,23.069298c3.272003,-10.053497 7.272003,-19.904396 8.380981,-30.560196c-0.355988,-0.627602 -0.712982,-1.255104 -1.069,-1.882706c1.985016,-1.0326 1.247009,-2.822998 1.264008,-4.403198c-3.462006,1.149399 -3.350006,3.294601 -3.924988,5.248901c-0.583008,-0.774399 -0.858002,-2.622597 -2.027008,-1.356201c-1.891998,2.288704 0.526001,1.763702 1.872986,3.294998c-0.845001,0.603401 -1.356995,0.0495 -2.181,0.582207c-0.385986,10.196594 -0.470001,22.588196 -5.453979,30.185196c1.350006,-6.360001 3.792999,-12.418396 3.514008,-19.232101c-1.327026,4.7826 -3.207001,9.410706 -2.994019,14.622101c-1.42099,0.652 -1.270996,2.946999 -1.743988,4.666c-0.324005,1.173004 -2.501007,4.521004 -0.309021,3.877998c1.042999,-1.235001 1.287018,-3.848999 3.560028,-2.576996c-0.357025,2.278999 -4.499023,3.502998 -2.64502,6.396996c5.050018,-5.728996 6.886017,-12.350998 10.916016,-18.362999l0,0zm12.526978,5.466003c2.651001,-0.499001 5.10202,0.409996 7.13501,0.400002c0.837006,-0.004005 2.22699,-2.605003 1.971008,0.153c2.182983,-0.909004 -0.108002,-1.603004 0.631989,-2.202003c6.94101,2.480003 13.786011,5.289001 21.576019,4.814003c0.733978,-1.909004 5.92099,-2.580002 5.416992,-4.834c-7.300018,-1.230003 -14.162018,-3.980202 -22.630005,-1.144005c-1.644989,-0.349396 -3.30899,-0.633797 -4.953003,-0.982597c-0.984009,0.915596 -1.799011,1.877602 -3.559998,2.5756c-11.76001,0.405998 -25.873993,7.588997 -30.562988,18.048996c5.722992,-7.269997 16.036987,-15.144997 24.974976,-16.828995zm-27.368988,18.143997c1.76001,-1.372002 3.773987,-4.746002 1.687988,-5.869995c0.140015,0.698997 -0.070984,1.300995 -0.901001,1.730995c-0.085999,-0.635002 0.725006,-3.603996 0.154999,-1.938995c-1.656982,1.653 -0.464996,4.098 -0.941986,6.077995zm30.174011,-62.935699c-6.013,11.536697 -11.919006,23.1035 -14.277008,35.656898c2.47699,-3.022598 2.826996,-7.354698 4.178009,-10.330498c0.548981,-1.210403 2.115997,-2.096901 2.54599,-3.254501c0.979004,-2.6362 0.011993,-6.974701 3.277008,-8.598602c-0.25,-1.654495 0.243988,-3.102898 0.519989,-4.611099c3.117004,-5.076996 6.779999,-10.001999 10.339996,-14.955399c0.957001,-0.5266 1.914001,-1.0527 2.871002,-1.579197c-0.200989,-2.1693 3.679993,-3.203003 3.179993,-5.455502c-5.196991,2.518501 -7.763977,9.197498 -12.634979,13.127899zm-30.403015,-20.347c-0.023987,-1.063499 -1.453003,-2.517601 0.097992,-3.1427c3.236023,4.6884 3.512024,8.2314 6.420013,11.2971c-0.132996,-6.222198 -2.045013,-11.9692 -6.970001,-17.790499c-0.479004,0.263 -0.958008,0.5266 -1.436005,0.7896c0.88501,2.762299 -1.290985,6.7628 1.888,8.846498zm9.487,3.431602c4.177002,-3.501904 4.421997,-10.604002 3.950012,-15.148102c-0.050995,-0.496401 0.117981,-1.7066 -1.281006,-1.1492c-2.640015,4.945601 -4.333008,10.153999 -2.669006,16.297302zm-1.492981,-0.415302c-0.542023,-4.1138 -0.421021,-8.0424 0.181976,-11.8384c-2.884003,2.900501 -2.317993,8.8617 -0.181976,11.8384zm-114.894012,56.405003c-3.937012,-1.260002 -3.209015,5.374397 -3.065002,7.865395c1.638,-0.591995 1.286011,-2.055 2.869995,-1.578995c-0.713989,-2.716003 2.752014,-6.358299 1.097015,-8.017403c0.138977,0.700104 -0.072021,1.302002 -0.902008,1.731003zm53.234985,-21.2509c5.404999,-2.456802 9.89801,-1.739601 15.057007,-3.3405c1.18399,-2.708504 2.843994,-5.284401 4.291016,-7.921204c-4.088013,-0.056396 -10.081024,1.529503 -13.776001,4.489204c-4.13501,0.371498 -7.536011,-1.810005 -12.455017,1.289894c2.100006,2.501602 4.89801,2.579506 6.882996,5.482605zm-48.882996,35.539299c4.820007,-2.093002 -0.990997,-7.145004 1.25,-9.955002c1.472015,2.126999 1.233002,3.778 1.985016,5.704002c4.934998,-3.660004 -2.125,-9.384903 -2.113007,-13.665802c-3.949005,5.108597 -5.088013,11.753799 -1.122009,17.916801zm24.524017,-26.464699c1.600983,-1.495201 4.128998,0.3508 6.598999,-0.541702c2.506989,-0.904602 4.661987,-3.696297 7.386993,-4.681c3.466003,-1.252098 5.682983,0.010002 8.036011,-1.331299c-1.346008,-1.205399 -3.071014,-1.080002 -3.097015,-3.238899c-5.582001,-1.688805 -16.846008,4.206902 -18.924988,9.7929l0,0zm80.375977,-44.213501c-0.592987,-1.208302 -1.356995,-1.817802 -2.293976,-1.827103c0.591003,1.206501 1.207977,2.3335 2.293976,1.827103zm-59.268982,33.838799c-0.968994,-1.299896 -2.149017,-1.865402 -3.519012,-1.771797c0.970001,1.299896 2.149994,1.866295 3.519012,1.771797zm62.286987,-0.899803c-1.139984,-2.562195 1.417999,-4.096794 0.674011,-6.548897c-1.395996,0.650803 -2.183014,-0.815903 -3.462006,-0.567101c0.18399,2.032303 0.35199,4.0616 -0.462006,5.815498c-0.621979,-2.0065 -1.300995,-3.710495 -3.153992,-4.443695c0.485992,0.795799 0.316986,1.408798 -0.153992,1.938301c-0.513,-1.595505 -2.916016,-3.717606 -2.197021,-4.970207c2.254028,2.380402 0.896027,0.338905 3.884003,-0.900497c0.520996,2.572998 2.237,0.651802 2.984009,0.830101c1.151001,0.274902 1.656006,3.014297 2.503998,1.093597c-0.527985,-3.742397 -2.799011,-5.906296 -4.546997,-8.002197c-2.023987,-2.4258 -4.417999,-5.5028 -6.460999,-6.948601c-1.083008,-0.767399 -2.748993,-0.612 -3.997009,-1.5089c-0.925995,-0.665699 -0.384979,-2.357899 -1.759003,-0.8862c6.585022,10.333401 3.542999,25.072201 16.147003,25.098797l0,0zm32.837006,-42.776497c-10.134003,14.484501 -19.459991,29.195 -20.902008,46.097702c2.028015,-2.716003 0.973022,-7.2435 2.417999,-11.215302c1.109009,-3.049 3.971008,-7.296001 6.359009,-10.912601c3.308014,-5.006897 6.532013,-10.5714 11.466003,-11.868698c-0.501007,2.502098 -5.562012,3.736698 -5.09201,6.5089c4.093018,-3.3811 7.546997,-7.832802 11.312012,-9.930401c8.145996,-4.5382 13.438995,1.893299 21.040985,3.8722c2.026001,-5.430401 -1.960999,-12.285999 -7.334991,-15.1187c0.166992,-1.406199 -0.298981,-2.988699 0.787018,-4.139299c-1.318024,0.7122 -2.39801,-1.5954 -2.083008,-2.561501c-1.455017,-0.078499 -3.35202,1.384401 -4.419006,-0.040499c-1.468994,-2.3633 -2.67099,-5.654701 -5.123993,-4.595501c-0.522003,0.912001 0.615997,2.2848 0.648987,3.349701c-0.983002,1.18 -0.549988,2.7533 -1.53299,3.9333c0.260986,1.2617 -3.558014,1.3874 -2.067993,2.9909c4.30899,-4.444801 8.902985,-4.107 10.540985,-0.237301c1.516998,3.5847 -3.235992,6.892502 -3.755005,8.862202c-2.556976,-2.644703 0.731995,-4.752001 1.363007,-7.546501c-1.174988,-1.5189 -2.934998,-0.998301 -4.053009,-2.712801c-3.455994,2.3517 -5.509979,5.0958 -9.571991,5.2642zm-12.700989,27.375599c-4.269012,3.964401 -3.930023,9.209805 -5.977997,13.791904c2.983002,-4.320602 3.336975,-9.374603 5.977997,-13.791904zm-4.85202,16.879902c3.57901,-7.593002 6.903015,-15.955101 12.660004,-23.027901c2.367004,-2.908298 5.858002,-4.547901 7.218018,-8.295101c-11.440002,7.580402 -18.733002,19.573303 -19.878021,31.323002l0,0zm-152.781982,43.882202c0.988983,2.051994 5.559998,2.82 7.419006,6.422997c3.583984,1.344002 5.595978,-0.493996 10.158997,-3.117996c-1.742004,-3.934006 -8.669006,-1.468002 -12.412018,-3.056999c4.846008,-3.713005 10.697998,1.345993 11.709015,-1.498001c-4.44101,-4.426003 -10.807007,-3.903 -16.875,1.25zm60.184998,-30.016899c2.355988,-1.0616 2.359009,-2.778206 3.235992,-4.251503c-2.423004,1.043098 -2.579987,2.716896 -3.235992,4.251503zm19.783997,-7.176605c1.656006,-1.577797 0.011993,-5.472694 -2.196014,-4.970795c0.781006,2.557098 1.334015,2.694 2.196014,4.970795zm-15.264008,25.078499c6.684021,-5.252998 17.623993,-6.198997 15.506012,-14.708c0.714996,-1.831398 2.061005,-2.606995 3.023987,-3.517593c-2.811005,-0.961502 -6.207977,0.112 -8.68399,-2.019302c-1.212006,-1.790703 -0.238007,-2.972504 -1.450012,-4.763298c-12.996002,1.265694 -12.940979,16.449394 -8.395996,25.008194zm-36.544983,10.835007c2.108978,-2.900002 0.925995,-5.819 -0.662994,-8.902c-1.026001,0.298996 -1.778015,-0.353004 -2.927002,0.372993c1.162994,2.834 1.14798,5.339005 3.589996,8.529007zm31.658997,-26.064606c-6.389008,9.481606 -2.264008,26.044601 9.196991,33.865601c6.056,0.886002 12.354004,0.929001 19.95401,-3.562996c0.737,-1.645004 1.227997,-3.356003 1.47699,-5.137001c-2.087006,-3.783005 -3.191986,-5.429001 -5.024994,-7.737999c0.584991,-3.403999 0.105011,-7.105003 -2.747009,-11.4645c-2.049988,0.134399 -2.634003,2.403496 -4.72699,3.836494c-4.399017,3.010002 -11.233002,4.999001 -14.621002,7.424004c-2.772003,-6.451004 -3.996002,-12.471199 -2.552002,-17.749702c-0.317993,0.175201 -0.636993,0.350899 -0.955994,0.5261zm15.421997,-6.012299c2.769989,1.573097 6.15799,0.998299 9.161987,1.756302c-1.066986,-1.353699 -0.496979,-2.251701 0.098999,-3.142799c4.622009,-2.999603 7.546997,-0.099503 11.919006,-2.231705c-1.074005,-1.355598 0.863007,-1.873398 -0.64801,-3.351097c-1.824982,-0.656998 -4.527985,1.741898 -5.91098,-0.454803c-2.804993,2.055206 -7.186005,2.755707 -10.257019,6.260201c-1.41098,-0.696098 -2.720978,-1.746895 -4.475983,-1.245399c0.145996,0.833702 -0.033997,1.575699 0.112,2.409302zm19.55899,-11.995102c0.005005,1.084503 -0.585999,4.028503 1.183014,4.291901c0.023987,-0.918396 -0.131012,-1.886002 1.110992,-2.464897c1.506012,0.743202 0.30899,2.2258 2.027008,1.356201c2.972992,-1.372101 5.274994,-2.006699 8.513977,-1.593399c2.634003,-2.261505 4.361023,-2.460007 6.90802,-4.4189c-4.725006,-5.803101 -14.149994,-2.745003 -19.743011,2.829094zm-39.806,24.986801c1.71701,-1.371895 1.184998,-3.3694 2.222015,-4.929802c-1.563995,1.413704 -2.403015,3.030006 -2.222015,4.929802zm88.033997,-27.420395c0.178009,0.313393 0.356995,0.627594 0.536011,0.941795c1.708008,-0.5821 2.042999,-1.544701 3.080994,-2.312698c0.134003,-1.734497 -2.623993,0.250099 -1.281006,-1.148705c1.302002,-1.259399 1.537018,1.191307 2.716003,0.359604c5.855011,-6.958099 1.617004,-16.723099 2.006012,-25.199902c-4.265015,4.636803 -9.765015,7.7528 -10.664001,13.280102c-0.294006,1.808201 1.372009,3.334301 -0.252014,5.0811c2.257019,3.306602 -0.531982,8.865601 3.169006,9.996597c-1.11499,-4.755295 0.714996,-7.244301 1.671997,-11.423599c1.031006,-4.507198 -0.18399,-8.571598 3.910004,-10.800499c-1.623993,7.076599 -3.833008,13.992699 -4.893005,21.226204zm-109.621002,38.058594c-2.619995,2.172005 0.090027,2.926003 0,0l0,0zm22.095001,0.203003c-0.334991,-2.479004 0.559998,-6.702003 -0.873993,-8.168999c0.334991,2.478996 -0.988983,6.583 0.873993,8.168999zm31.041016,-18.311203c2.112,-0.7174 2.748993,-4.962601 2.587982,-7.602097c-1.307983,0.346001 -2.566986,0.524101 -4.095001,1.634796c0.184021,1.900604 0.620026,3.871704 1.507019,5.9673zm110.97998,-66.608097c-3.372986,1.1418 -0.232971,2.0149 0,0l0,0zm2.659027,-0.8452c4.500977,-3.235401 11.951996,-4.316301 13.664978,-6.8981c-3.949982,0.945499 -10.641998,3.9774 -13.664978,6.8981zm-177.325012,101.251499c-1.272003,-1.648003 -3.140991,-1.219002 -4.95401,-0.983002c1.195007,1.912003 2.878021,2.131004 4.95401,0.983002zm65.657013,-33.646004c-0.186005,2.797104 2.401001,6.172005 0.662994,8.903008c-3.317017,-4.049904 -1.01001,-10.394203 -6.785004,-8.625206c-0.89801,0.674706 -0.214996,1.789803 -1.110992,2.464905c5.03299,5.598396 5.095001,10.499298 8.826996,15.533295c2.97998,-2.076996 -1.382019,-6.196999 2.320007,-8.072998c0.701996,1.780998 1.027985,3.456001 2.463989,5.441002c3.973999,-2.196999 -0.261993,-6.678001 1.518005,-9.484901c-0.65802,-1.446999 -1.904022,-0.851402 -2.563019,-2.297997c0.218018,-1.524406 0.946014,-2.906799 -0.225983,-4.818001c-2.018005,0.268097 -1.053009,3.3554 -3.080994,2.313499c0.565979,-3.008202 -1.371002,-5.757599 1.630981,-7.076004c3.651001,-1.602501 4.468994,3.2155 6.882996,5.481201c2.069,1.941704 4.177002,1.057098 5.279022,2.6576c5.97998,-3.989899 10.309998,-2.236496 14.902985,-1.401596c-0.832001,-3.849106 -1.97699,-6.359604 -3.647003,-9.733604c-2.799988,-0.383598 -3.138,-0.827995 -4.110992,-3.917603c-2.957001,-0.9226 -5.765991,-2.361893 -9.373016,-1.022797c-2.303986,1.207802 -1.041992,3.4086 -2.967987,4.722801c-3.231995,2.835297 -5.014008,0.627197 -7.768005,1.801796c-0.975006,2.263901 -2.673981,4.413101 -2.85498,7.131599zm107.418976,-64.033297c-3.898987,1.4062 -0.722992,2.2892 0,0l0,0zm3.826996,-2.1052c-0.547974,0.639601 -2.784973,0.8102 -2.122986,1.787001c0.548004,-0.639601 2.785004,-0.8102 2.122986,-1.787001zm6.01001,-2.687099c-6.473999,1.014099 -3.484985,4.499701 0,0l0,0zm15.901001,-6.275801c-1.225006,-1.855499 -5.552002,-0.2374 -6.333008,1.012701c2.091003,-0.267 4.035004,-0.023602 6.333008,-1.012701zm-187.333008,102.431398c-2.584991,2.847 -5.177002,5.693001 -6.203979,8.973999c8.966003,0.440002 10.296997,-9.209999 16.307983,-13.295998c-2.934998,-1.933998 -7.811005,2.886002 -11.384003,3.174004c0.347015,0.657997 0.812012,0.907997 1.279999,1.147995zm174.894012,-95.588497c6.95401,-2.704901 12.708984,-1.2411 19.053986,-1.831701c10.15802,5.177101 24.753021,12.971601 27.870026,29.153299c5.294983,1.5224 2.987,8.597401 4.028992,12.612801c2.726013,-0.8419 2.312988,-4.619099 4.460999,-4.307499c3.705017,6.279202 -0.913025,9.451 -2.783997,13.888401c-0.599976,1.421898 -0.317017,3.098099 -0.786987,4.139397c-0.487,1.080002 -3.218994,1.882004 -1.801025,3.461899c4.22699,-1.007896 1.559021,-7.177094 6.682983,-9.237396c-0.784973,-1.914497 1.235046,-3.206497 1.476013,-5.135902c0.192993,-1.541595 -0.992004,-3.977398 -1.028992,-6.231098c-0.007019,-0.434002 0.986023,-1.066902 0.900024,-1.7314c-0.353027,-2.735001 -2.231995,-5.789299 -3.112,-8.790501c-0.529053,-1.805599 -0.334045,-3.595798 -0.972046,-5.026299c-2.256958,-5.057503 -6.496948,-9.043301 -9.938965,-13.068802c-2.507019,-2.933001 -3.382019,-3.546 -4.434021,-5.593399c-3.730988,-2.4328 -7.878998,-3.418701 -11.358978,-6.726501c-8.751007,1.7264 -20.121002,-3.2357 -30.285004,3.066801c0.276001,1.8498 1.753998,-0.490301 2.028992,1.357901zm-180.578003,99.950497c1.102997,-0.881996 1.824005,-1.869995 2.067993,-2.991997c-1.471985,0.779999 -2.192993,1.767998 -2.067993,2.991997zm166.703003,-92.318598c2.542999,-1.802 7.040985,-3.060699 8.345001,-5.2075c-2.216003,1.249901 -8.30899,2.341101 -8.345001,5.2075zm-103.015991,58.521303c-0.487,-1.1642 0.661987,-1.785004 1.645996,-1.523903c-0.826019,-2.486603 -4.112,1.904198 -1.645996,1.523903zm117.635986,-65.945803c-0.954987,0.3881 -3.860992,0.530001 -3.826996,2.105299c1.299011,-1.5821 3.812988,-0.363998 3.826996,-2.105299zm-191.199982,108.884104c2.625,-0.212997 6.290985,-3.160004 6.372986,-5.360001c-1.809998,1.873993 -5.493988,3.22699 -6.372986,5.360001zm36.570984,-20.735001c0.178009,0.312996 0.356995,0.626999 0.535004,0.940994c1.592987,0.084 0.498993,-2.373001 -0.322998,-1.674995c0.134003,0.300995 0.244995,0.596001 -0.212006,0.734001zm164.424011,-88.594704c-0.412994,-1.495699 -3.512024,-0.681099 -3.404999,0.6383c1.376984,-1.0569 1.904999,0.8482 3.404999,-0.6383zm-79.753021,57.4646c2.354004,-3.374199 -0.711975,-6.464096 -0.509003,-10.841499c-1.888977,1.111603 -1.502991,4.346497 0.494019,5.289398c-2.528015,1.1455 -0.498993,3.559502 0.014984,5.552101zm-81.996002,35.837097c0.319,-0.174995 0.638,-0.350998 0.957001,-0.526993c-0.177979,-0.314003 -0.355988,-0.627007 -0.534973,-0.942001c-0.318024,0.175995 -0.638,0.350998 -0.957001,0.527c0.177979,0.312996 0.356995,0.627998 0.534973,0.941994zm64.448029,-28.038193c2.816986,2.866997 5.005981,7.161194 6.631989,10.563194c0.770996,1.615005 0.425995,4.405998 2.674988,4.707001c-2.846985,-7.427498 -5.871002,-17.989899 -14.485992,-21.070198c0.119995,3.5429 3.153015,3.736397 5.179016,5.800003zm107.151978,-64.503803c-0.992004,-1.745701 -5.074982,-0.0093 -5.375977,0.486099c1.942993,-0.685101 3.106995,1.334801 5.375977,-0.486099zm-176.684998,141.057995c-1.264008,-1.647995 -2.77298,-3.507996 -5.122986,-4.595001c-1.878998,0.269012 0.5,1.723999 -1.378021,1.994003c-5.429993,-5.802994 -12.608978,-7.882996 -19.677002,-11.418991c-1.290985,-0.804001 -1.485992,1.495987 -2.181,0.582001c-3.416992,-2.224014 -6.115997,-4.304001 -9.33197,-5.37001c-1.197021,-0.397003 -3.450012,-1.067993 -4.686005,-0.511002c6.151001,3.624008 11.953979,8.37001 16.862976,14.202011c2.485016,2.954987 2.730011,7.627991 5.884003,10.355988c0.104004,1.893005 -0.492004,5.207001 1.029022,6.230011c2.810974,0.289993 4.092987,-2.661011 5.951996,-3.891998c3.240997,6.896988 13.96698,12.807999 13.052002,21.860001c4.587006,0.469986 5.90799,-4.659012 7.751984,-7.354004c4.596008,0.432999 11.697021,3.947998 17.733002,1.367996c5.556,-2.375992 9.998993,-8.233002 9.649994,-13.960007c-1.819977,-0.459 -2.817993,1.545013 -4.306,2.369003c-0.513977,-1.727997 1.559021,-2.737 2.012024,-4.195999c-4.088013,2.076004 -3.473022,7.753998 -7.582001,10.969009c-3.921997,3.065994 -8.980011,3.780991 -11.863007,3.435989c-2.821014,-0.33699 -7.722015,-2.488998 -8.529999,-3.959c6.208984,0.822006 11.385986,5.234009 19.589996,-0.889999c-2.442017,-2.712997 -5.692017,-2.616989 -7.895996,-6.158997c5.042999,-1.639999 6.454987,-5.936996 6.893982,-9.970993c0.670013,-0.474014 1.860016,-0.804001 1.64502,-1.524002c-4.638,0.720993 -9.503021,2.235001 -13.890015,2.078995c-7.674988,-5.061005 -15.562988,-9.380997 -24.095001,-11.459c2.583008,3.350006 6.737,3.860001 10.076996,5.578003c3.153015,1.621994 5.819,4.127991 9.332001,5.369995c1.617004,1.848007 3.067017,4.279007 4.913025,5.330002c-0.611023,1.679001 1.416992,4.093002 0.014984,5.552002c-2.924988,0.119995 -8.121002,2.613998 -12.665009,2.024002c-2.562988,-2.775009 -7.475983,-4.792999 -8.276001,-9.040009c4.911011,3.927002 9.410004,9.294998 16.042023,7.238998c-0.32901,-4.271988 -6.874023,-5.763 -7.529999,-8.832001c2.087982,1.356003 6.881989,5.934006 7.725983,2.546005c-3.518982,-1.686005 -7.332001,-3.641998 -10.019989,-4.373001c0.630005,-0.352997 -0.031006,-1.065994 0.421997,-1.468994c0.765991,-0.598007 2.73999,1.401993 2.446991,-0.111008zm9.998016,-43.186996c-3.266022,-3.843002 -1.218018,1.106003 0,0l0,0zm28.41098,-6.361c0.419006,-1.629997 -0.936005,-4.907997 -3.153992,-4.444c1.894012,3.220001 3.523987,7.360001 6.25,7.682999c5.575012,-3.072998 5.761993,-7.642998 3.317993,-12.945999c-2.979004,2.077003 0.149994,5.854004 -1.574982,8.279999c-3.045013,-1.446999 -0.012024,-4.084 -2.52002,-6.645996c-0.625977,0.310997 -1.005005,-0.238998 -1.703003,0.319c-0.440979,2.518997 1.450012,5.686996 -0.615997,7.753998zm48.322021,-26.5812c1.384003,-1.215302 1.776978,-4.769897 -0.016022,-5.552498c0.473999,1.9823 0.283997,3.778198 0.016022,5.552498zm10.144989,-8.669502c0.096985,-0.441795 1.13501,-2.490601 -0.59201,-2.145699c0.427002,0.587601 -1.136993,2.490601 0.59201,2.145699zm56.890991,-26.969795c-5.095001,1.022198 -2.225983,3.152599 0,0l0,0zm-5.494995,34.532295c0.917999,1.942802 2.218018,2.555702 3.574005,2.976303c0.161987,-1.263603 -2.093994,-3.087502 -3.574005,-2.976303zm-4.803986,-23.924496c-2.660004,5.743397 0.007996,18.888798 7.040985,24.547596c3.588013,2.887001 9.069,1.060303 11.723999,4.054199c3.476013,-0.416695 6.713989,-0.001999 10.694,-2.176498c-2.329987,-2.6353 -5.28299,-3.104996 -7.416992,-6.4235c5.067993,-2.052399 10.536011,-2.656296 12.651001,-7.576302c-2.386993,-4.3116 -4.912994,-8.132393 -7.64502,-11.241096c-1.877991,0.268898 0.5,1.724197 -1.376984,1.994003c-3.406006,-4.493202 -8.575989,-7.160805 -10.628998,-12.071804c-6.399017,-1.005199 -13.248993,5.020802 -15.041992,8.893402l0,0zm16.744995,-9.211102c0.850006,4.313301 5.694,6.1548 8.065002,9.772903c2.970978,-2.265602 -3.001007,-5.182804 -2.52002,-6.644402c2.501007,0.639297 4.183014,4.126598 7.248016,2.808598c0.03598,-2.8955 -5.658997,-4.262398 -5.925995,-6.0075c2.302002,-0.035698 5.333984,4.756702 7.403992,0.870102c-2.766998,-1.1166 -5.73999,-1.517002 -8.261993,-3.487701c-2.791016,1.738098 -6.791016,0.312199 -8.247009,2.0653c0.838013,-0.115101 1.584991,0.092701 2.238007,0.6227zm-95.089996,75.785797c0.53299,-1.848999 0.457001,-3.696999 0.462982,-5.815994c0.006012,-1.989006 0.471008,-4.469002 0.195007,-6.286003c-0.227997,-1.501999 -2.587006,-4.140999 0.040985,-4.348c-0.51297,-1.595001 -2.915985,-3.717003 -2.195984,-4.970001c1.229004,2.732002 3.424011,2.102005 5.066986,3.390999c-0.664001,0.740005 1.306,2.212006 0.381012,2.881004c-0.730988,0.207001 -1.295013,-0.167999 -2.182007,0.581001c1.578003,2.309998 -1.199982,6.210999 1.774994,6.437996c-0.154999,1.938004 -2.799988,3.184998 -1.954987,5.401001c0.54599,1.432999 1.114014,-2.162003 2.181,-0.582001c0.238007,2.074005 -2.681,0.812004 -1.321991,3.197998c9.625,-4.228996 4.463989,-22.657997 -6.239014,-23.134995c4.397003,8.527 -3.184998,15.255997 3.791016,23.246994zm130.451996,-90.913197c-0.234009,-0.711899 -1.339996,-1.674301 -1.013,-0.678699c0.233002,0.713699 1.341003,1.675198 1.013,0.678699zm-128.738007,75.1422c0.317993,-0.175003 0.638,-0.350998 0.955994,-0.526001c-0.177979,-0.314003 -0.356995,-0.627998 -0.535004,-0.942001c-0.319,0.175003 -0.638,0.350998 -0.957001,0.526001c0.179016,0.314003 0.358002,0.627998 0.536011,0.942001zm132.961029,-68.815502c0.22699,-0.767399 -0.923035,-3.904198 -2.140015,-3.765198c0.395996,0.939701 0.539001,3.7981 2.140015,3.765198zm-17.259033,34.826298c0.205017,1.551704 -3.54599,3.922203 -4.574005,1.8983c2.846008,-2.2733 4.507019,-5.060493 4.080017,-7.186897c1.837006,-0.318497 3.569,-0.271797 5.587006,-1.219597c-1.569,-1.586403 -5.506012,-2.277802 -5.601013,-4.332405c3.070007,0.152405 7.929993,6.425705 9.105011,0.552299c-6.962006,-1.472595 -12.106018,-9.261795 -18.509003,-12.679497c0.671997,1.772701 3.247986,4.073601 1.717987,5.2337c-1.559998,0.739399 -3.195984,-2.482201 -3.940002,-0.304001c4.671997,4.0994 6.255005,11.156498 10.740997,14.480404c-4.789001,3.352898 -7.899994,6.012497 -13.397003,7.3694c2.503021,3.439598 5.755005,4.265099 8.854004,5.6334c2.494995,-1.565201 8.565002,-1.618103 7.865997,-4.944504c-3.884003,1.820503 -9.578979,2.517097 -11.018982,0.500404c6.731995,1.702797 16.05899,-2.360802 16.47699,-9.681702c-2.872009,-0.553505 -4.121002,1.661095 -4.994995,3.365395c-0.829987,-0.0317 -5.316986,1.285202 -3.615997,1.371704c0.47699,-0.266098 0.78299,0.067398 1.222992,-0.056404l0,0zm-178.72699,76.689201c-2.324005,0.115005 -6.098999,-2.091995 -7.613007,-0.136993c2.381012,-0.312012 6.380005,1.116989 7.613007,0.136993zm32.533997,-17.895996c1.072998,-1.613007 -3.782013,-3.415009 -2.083008,-2.561005c0.744995,0.67601 0.993011,3.084 2.083008,2.561005zm173.710022,-99.8797c-0.029053,0.024097 0.277954,0.4212 0.266968,0.470398c-0.81897,3.8041 1.804016,-2.133202 -0.266968,-0.470398zm2.998962,6.3825c0.221985,-0.644501 -0.68396,-3.5625 -1.872009,-3.295002c1.458008,1.112 0.06604,3.390499 1.872009,3.295002zm-66.922974,38.0485c-0.83902,-1.285698 -1.424011,-3.455902 -2.830017,-2.768402c-0.320984,1.285599 1.516998,2.958801 2.830017,2.768402zm-124.432007,72.772705c-3.475006,-1.002014 -9.910004,0.862991 -12.455017,1.289993c3.983002,0.158997 8.226013,-0.589996 12.455017,-1.289993zm52.415009,-28.215012c0.201996,-1.336998 3.093994,-2.686996 0.365997,-2.672997c1.786987,-2.013 4.042999,-3.893997 3.868988,-6.452995c-3.328003,3.168999 -5.190002,6.745995 -7.372009,10.233994c2.585999,-0.237 1.973022,-3.371994 3.559998,-2.575996c-0.97699,0.087997 -1.549988,2.079994 -0.422974,1.467995zm123.109955,-69.573494c0.997009,2.583099 1.254028,-2.016602 2.182007,-0.581303c-1.567993,2.151203 1.27002,3.1898 -0.72998,5.344101c-1.934998,1.126102 -3.868988,2.2495 -5.531006,2.4249c-0.235992,2.576004 0.307007,5.369003 -2.85498,7.131599c0.815979,1.362404 2.085999,1.147102 3.250977,1.300598c1.63501,-4.058395 6.374023,-6.971893 11.848022,-8.988594c0.424011,-3.844902 -0.973999,-8.196003 -0.565979,-12.046303c-2.65802,2.637699 -5.598022,3.7826 -7.865051,4.9454c0.264038,-0.149101 0.757996,0.081001 0.265991,0.469601zm-193.916962,108.523506c-0.434021,-0.825012 -1.053009,-1.004013 -1.76001,-0.886002c0.434998,0.82399 1.054993,1.00499 1.76001,0.886002zm190.048981,-102.070709c1.476013,-1.041199 1.765015,-2.414398 2.278015,-3.7244c-1.110016,1.060902 -1.493011,-0.4053 -2.447998,0.111702c0.386993,1.295101 -1.279999,2.019501 0.169983,3.612698l0,0zm-167.083984,89.437698c-0.809998,0.656006 -4.106018,0.82901 -2.391998,1.31601c0.690979,-0.749008 2.770996,0.286987 2.391998,-1.31601zm27.22998,-10.651993c-1.73999,0.998993 -5.119995,1.699997 -5.20697,4.098999c6.845978,-2.900009 12.789978,-7.628006 15.941986,-10.623001c1.264984,-1.201004 5.02301,-1.987 3.235992,-4.251999c-0.313995,-0.306 -0.539978,-0.919998 -1.013,-0.679001c-1.661987,4.436005 -7.061005,8.067993 -12.958008,11.455002l0,0zm-6.642975,4.888992c-0.699005,-1.302002 -1.945007,-0.578003 -2.716003,-0.360001c-4.692993,1.328003 -11.15802,4.819 -14.677002,6.220001c5.459991,-0.929993 13.052002,-4.457993 17.393005,-5.860001l0,0zm-38.541016,20.583008c-0.609985,-1.210999 0.076019,-1.975998 -1.548981,-1.619003c0.481995,0.658997 0.816986,1.830002 1.548981,1.619003zm61.450012,-34.419998c-3.373993,1.141998 -0.234009,2.014999 0,0l0,0zm101.358978,-41.546104c-3.049988,-1.4431 -5.870972,0.394798 -8.837982,-0.081001c-3.475006,-0.557503 -6.024017,-3.3619 -9.696991,-2.697998c5.065979,4.794998 11.599976,4.483299 18.534973,2.778999zm23.21701,-17.713699c3.334015,1.009399 6.613983,2.212799 9.96402,3.168594c2.632996,-1.776993 2.222961,-4.400696 3.123962,-6.659492c2.287048,-2.931107 3.819031,-6.071007 4.712036,-9.389503c-0.434998,-0.8237 -1.054016,-1.003799 -1.76001,-0.8857c-1.369995,6.523296 -15.662018,7.007198 -16.040009,13.766102zm-5.360992,6.037697c2.035004,-0.611801 5.725006,-3.152702 4.135986,-5.981598c-2.923981,0.129303 -3.727997,3.871399 -4.135986,5.981598zm-6.739014,8.031998c-2.876984,1.130905 -5.302002,0.696304 -8.03598,1.331802c-1.999023,3.406898 -1.369995,7.544098 -1.673004,11.423302c6.429993,-3.437798 17.083984,-4.486504 15.139984,-12.035301c-1.964996,-0.346298 -2.397003,2.0989 -4.360992,1.163803c1.81601,-2.8237 -1.667999,1.278297 -1.070007,-1.883606zm13.143005,-2.2864c-0.695984,-1.515099 -0.164978,-2.688499 -0.437988,-4.084099c-1.119995,0.631104 -1.868011,-0.0364 -3.136993,1.1082c0.549988,4.023499 0.927002,1.845802 3.574982,2.975899zm3.29303,-3.0476c-0.670044,-1.406998 -1.480042,-2.323799 -2.562012,-2.297096c-0.28302,0.962502 1.312012,2.548203 2.562012,2.297096zm15.169983,-0.930695c-1.207031,8.772797 8.059998,26.9468 18.695007,21.844795c-0.536011,-0.941994 -1.070007,-1.882996 -1.606018,-2.824997c-1.940979,0.219002 -3.911987,0.531998 -5.854004,0.750999c-9.531982,-6.443001 -8.447998,-17.828201 -8.589966,-26.168503c-3.379028,2.3629 -0.412048,6.490105 -1.518005,9.485306c0.036987,-0.731003 -0.946045,-4.797905 -1.127014,-3.087601zm32.942993,53.548798c1.455994,-0.972 0.617981,-5.251007 -1.450012,-4.763c-0.195984,1.399002 1.444031,3.307999 1.450012,4.763zm-1.590027,2.729004c1.231018,-0.600998 2.008057,0.07399 1.645996,-1.52301c-0.984985,-0.263 -1.607971,0.504013 -1.645996,1.52301zm-2.546997,3.253998c-0.857971,-1.296997 -4.253967,-0.973999 -4.627991,0.692993c1.484985,-0.029999 2.737,0.75 4.627991,-0.692993zm7.727051,2.546005c-0.643005,-2.046005 -3.111023,-4.948013 -3.785034,-2.241013c1.713989,-0.099991 1.640991,1.744003 3.785034,2.241013z" clip-rule="evenodd" fill-rule="evenodd"/>
   <path id="svg_18" fill="#3a6b09" d="m446.244202,103.658463c0.795624,0.082466 5.917114,-2.872253 7.557587,-1.067383c-2.72113,1.05574 -5.232605,1.382088 -7.557587,1.067383z" clip-rule="evenodd" fill-rule="evenodd"/>
   <path id="svg_19" fill="#3a6b09" d="m450.265015,110.750999c2.849976,3.264999 5.240997,5.368004 9.175995,7.308998c5.278992,-2.018997 9.362,0.124001 13.580994,1.797005c1.471985,-3.117004 -3.837006,-8.132004 -6.785004,-8.625c-1.003998,1.376999 1.558014,1.889999 2.083008,2.560997c-0.984009,0.111 -4.820007,-1.885002 -6.769012,-3.072998c-1.544006,-0.702003 -3.682983,0.669998 -4.742981,-1.716003c0.429993,-1.516998 2.426971,-1.333 3.194,0.097c6.493988,-2.781998 16.297974,5.773003 14.836975,12.846001c-1.583984,1.304001 -2.131989,-0.993996 -3.250977,-1.300995c-0.725006,1.911995 0.347992,4.323997 1.29599,6.700996c-0.796997,0.438004 -1.593994,0.876999 -2.391998,1.315994c-3.285004,-3.985992 -8.256012,-2.105995 -11.569,-5.991997c-0.735992,-1.181999 -2.213013,0.223999 -3.195007,-0.097c1.876007,-3.035995 -4.263,-8.868996 -6.419006,-11.295998c-1.212006,0.719002 0.641998,2.292 -1.589996,2.726997c-0.231995,-1.850998 -1.273987,-2.040001 -2.674988,-4.708c3.061981,0.498001 5.621002,-1.862999 9.048981,-0.652c0.124023,1.284004 -3.630981,0.049004 -3.827972,2.106003zm18.564972,13.884003c-1.242981,-3.619003 -3.547974,-3.539001 -4.970001,-6.535004c-3.026978,1.188004 -5.646973,0.965004 -7.67099,-1.341995c-0.837006,0.427994 -1.019989,1.036995 -0.898987,1.730995c4.372986,2.534004 8.307983,6.597 13.539978,6.146004l0,0zm0.308014,-3.876999c-0.501007,-0.801003 -0.723999,-1.523003 -0.591003,-2.147003c-0.371002,0.025002 -2.506989,-0.156998 -1.912994,1.053001c0.817993,-0.339005 0.490997,2.666 2.503998,1.094002z" clip-rule="evenodd" fill-rule="evenodd"/>
  </g>
  <line id="svg_88" y2="93.40625" x2="345.171875" y1="91.734375" x1="345.25" stroke="#000000" fill="none"/>
 </g>
</svg>